<?xml version="1.0" encoding="UTF-8"?>
<!DOCTYPE svg PUBLIC "-//W3C//DTD SVG 1.1//EN" "http://www.w3.org/Graphics/SVG/1.1/DTD/svg11.dtd">
<svg xmlns="http://www.w3.org/2000/svg" version="1.1" width="288px" height="288px" style="shape-rendering:geometricPrecision; text-rendering:geometricPrecision; image-rendering:optimizeQuality; fill-rule:evenodd; clip-rule:evenodd" xmlns:xlink="http://www.w3.org/1999/xlink">
<g><path style="opacity:0.774" fill="#649e1d" d="M 116.5,-0.5 C 120.833,-0.5 125.167,-0.5 129.5,-0.5C 132.714,0.282003 136.048,1.11534 139.5,2C 148.377,7.54763 155.21,15.0476 160,24.5C 170.325,35.9129 183.158,41.0796 198.5,40C 204.255,43.6965 210.588,46.0298 217.5,47C 219.96,48.4578 222.127,50.2911 224,52.5C 230.764,66.5262 236.264,81.0262 240.5,96C 238.106,102.963 235.273,109.796 232,116.5C 231,117.5 230,118.5 229,119.5C 227.74,125.28 226.073,130.947 224,136.5C 218.95,145.931 214.45,155.598 210.5,165.5C 211.184,168.725 212.351,171.725 214,174.5C 214.076,183.853 216.409,192.519 221,200.5C 222.184,204.449 222.518,208.449 222,212.5C 219.002,222.489 216.002,232.489 213,242.5C 210.404,244.02 207.571,244.853 204.5,245C 202.5,246.333 200.5,247.667 198.5,249C 197.254,252.582 194.92,255.249 191.5,257C 185.833,257.333 180.167,257.667 174.5,258C 170.681,261.777 166.015,263.61 160.5,263.5C 152.587,261.215 145.587,262.715 139.5,268C 133.564,269.139 127.564,269.805 121.5,270C 118.385,272.117 115.052,273.784 111.5,275C 106.833,275.333 102.167,275.667 97.5,276C 94.2418,278.461 90.5752,280.127 86.5,281C 79.7536,281.121 73.087,281.788 66.5,283C 64.9586,284.371 63.6253,285.871 62.5,287.5C 60.8333,287.5 59.1667,287.5 57.5,287.5C 54.1691,284 51.0024,280.334 48,276.5C 46.3685,270.789 46.3685,265.122 48,259.5C 51.3109,256.181 55.3109,254.848 60,255.5C 65.2427,255.718 70.4093,256.384 75.5,257.5C 93.2045,243.463 108.871,227.463 122.5,209.5C 120.255,204.306 121.755,200.639 127,198.5C 127.309,197.234 127.809,196.067 128.5,195C 127.378,191.591 127.211,188.091 128,184.5C 129.264,182.393 131.097,181.393 133.5,181.5C 132.971,177.808 133.971,174.642 136.5,172C 139.834,170.254 143.334,169.087 147,168.5C 146.19,163.713 146.357,158.88 147.5,154C 147.355,152.774 147.022,151.607 146.5,150.5C 144.433,149.866 142.6,148.866 141,147.5C 139.855,142.917 139.189,138.251 139,133.5C 135.831,131.173 133.664,128.173 132.5,124.5C 132.608,123.558 132.941,122.725 133.5,122C 150.001,119.162 155.167,109.995 149,94.5C 147.667,92.5 146.333,90.5 145,88.5C 145.04,77.1363 143.207,66.1363 139.5,55.5C 140.015,52.1366 141.348,49.1366 143.5,46.5C 136.375,41.4315 129.041,36.5981 121.5,32C 114.811,26.945 112.811,20.445 115.5,12.5C 114.472,10.6385 112.972,9.30521 111,8.5C 110.333,6.83333 110.333,5.16667 111,3.5C 113.015,2.30342 114.849,0.970083 116.5,-0.5 Z"/></g>
<g><path style="opacity:1" fill="#badd8c" d="M 129.5,3.5 C 132.152,3.40953 134.485,4.07619 136.5,5.5C 136.539,6.58317 136.873,7.58317 137.5,8.5C 136.271,9.28107 134.938,9.78107 133.5,10C 136.789,11.0767 137.289,12.91 135,15.5C 134.517,14.552 134.351,13.552 134.5,12.5C 133.178,12.67 132.011,12.3366 131,11.5C 131.29,7.79765 129.79,5.29765 126.5,4C 127.448,3.51722 128.448,3.35055 129.5,3.5 Z"/></g>
<g><path style="opacity:1" fill="#b2d980" d="M 121.5,2.5 C 124.385,2.1936 127.052,2.52693 129.5,3.5C 128.448,3.35055 127.448,3.51722 126.5,4C 129.79,5.29765 131.29,7.79765 131,11.5C 132.011,12.3366 133.178,12.67 134.5,12.5C 134.351,13.552 134.517,14.552 135,15.5C 137.289,12.91 136.789,11.0767 133.5,10C 134.938,9.78107 136.271,9.28107 137.5,8.5C 136.873,7.58317 136.539,6.58317 136.5,5.5C 138.553,5.40206 140.22,6.06873 141.5,7.5C 140.5,7.5 139.5,7.5 138.5,7.5C 138.643,9.26241 138.309,10.9291 137.5,12.5C 140.048,14.2189 139.715,15.5522 136.5,16.5C 137.89,18.1694 138.223,19.8361 137.5,21.5C 137.968,23.1338 138.968,24.3005 140.5,25C 138.071,25.4512 137.904,26.2845 140,27.5C 140.414,27.0426 140.914,26.7093 141.5,26.5C 144.286,27.9561 147.286,28.9561 150.5,29.5C 149.167,30.1667 147.833,30.8333 146.5,31.5C 147.025,32.1924 147.692,32.6924 148.5,33C 148.772,35.6056 148.772,38.2723 148.5,41C 150.787,43.0698 152.453,45.5698 153.5,48.5C 152.313,48.5536 150.98,48.8869 149.5,49.5C 150.833,50.6199 151.333,51.9532 151,53.5C 149.615,52.4495 148.615,51.1161 148,49.5C 147.329,50.2524 146.496,50.5858 145.5,50.5C 147.109,49.1021 147.942,47.4354 148,45.5C 144.701,42.449 141.201,39.7823 137.5,37.5C 138.289,37.2172 138.956,36.7172 139.5,36C 138.939,34.324 137.939,32.9906 136.5,32C 138.137,30.049 139.637,30.2157 141,32.5C 141.5,32 142,31.5 142.5,31C 138.633,28.9609 136.467,26.1276 136,22.5C 135.333,21.1667 134.667,21.1667 134,22.5C 132.157,19.3467 132.99,18.18 136.5,19C 135.667,18.1667 134.833,17.3333 134,16.5C 131.167,17.6667 130.333,16.8333 131.5,14C 130.299,13.0975 129.465,11.9308 129,10.5C 127.674,13.6725 128.508,16.5058 131.5,19C 129.544,18.7782 127.71,17.9448 126,16.5C 125.833,16.8333 125.667,17.1667 125.5,17.5C 128.312,20.4015 131.312,23.0681 134.5,25.5C 132.833,25.5 131.167,25.5 129.5,25.5C 127.815,23.9825 126.315,22.3159 125,20.5C 123.295,14.5998 122.128,8.59982 121.5,2.5 Z"/></g>
<g><path style="opacity:1" fill="#b3d981" d="M 144.5,9.5 C 149.952,14.2887 154.285,19.9554 157.5,26.5C 154.919,25.4251 152.753,23.7585 151,21.5C 150.626,22.4162 150.126,23.2496 149.5,24C 150.624,24.2492 151.624,24.7492 152.5,25.5C 150.955,26.4519 149.288,26.7852 147.5,26.5C 147.66,24.8008 147.494,23.1341 147,21.5C 146.647,23.0739 145.98,24.7406 145,26.5C 144.363,23.8929 143.196,21.5596 141.5,19.5C 142.167,19.1667 142.833,18.8333 143.5,18.5C 145.155,19.3877 146.822,19.8877 148.5,20C 146.679,17.8634 144.346,17.0301 141.5,17.5C 141.5,15.5 141.5,13.5 141.5,11.5C 143.179,11.7148 144.179,11.0481 144.5,9.5 Z"/></g>
<g><path style="opacity:1" fill="#b7db88" d="M 121.5,2.5 C 122.128,8.59982 123.295,14.5998 125,20.5C 126.315,22.3159 127.815,23.9825 129.5,25.5C 131.167,25.5 132.833,25.5 134.5,25.5C 131.312,23.0681 128.312,20.4015 125.5,17.5C 125.667,17.1667 125.833,16.8333 126,16.5C 127.71,17.9448 129.544,18.7782 131.5,19C 128.508,16.5058 127.674,13.6725 129,10.5C 129.465,11.9308 130.299,13.0975 131.5,14C 130.333,16.8333 131.167,17.6667 134,16.5C 134.833,17.3333 135.667,18.1667 136.5,19C 132.99,18.18 132.157,19.3467 134,22.5C 134.667,21.1667 135.333,21.1667 136,22.5C 136.467,26.1276 138.633,28.9609 142.5,31C 142,31.5 141.5,32 141,32.5C 139.637,30.2157 138.137,30.049 136.5,32C 137.939,32.9906 138.939,34.324 139.5,36C 138.956,36.7172 138.289,37.2172 137.5,37.5C 129.308,34.1639 122.808,28.8305 118,21.5C 117.814,17.4841 117.814,13.4841 118,9.5C 116.59,8.21251 115.09,7.04584 113.5,6C 115.818,4.0073 118.484,2.84063 121.5,2.5 Z"/></g>
<g><path style="opacity:1" fill="#b8dc88" d="M 141.5,7.5 C 142.5,8.16667 143.5,8.83333 144.5,9.5C 144.179,11.0481 143.179,11.7148 141.5,11.5C 141.5,13.5 141.5,15.5 141.5,17.5C 144.346,17.0301 146.679,17.8634 148.5,20C 146.822,19.8877 145.155,19.3877 143.5,18.5C 142.833,18.8333 142.167,19.1667 141.5,19.5C 143.196,21.5596 144.363,23.8929 145,26.5C 145.98,24.7406 146.647,23.0739 147,21.5C 147.494,23.1341 147.66,24.8008 147.5,26.5C 149.288,26.7852 150.955,26.4519 152.5,25.5C 151.624,24.7492 150.624,24.2492 149.5,24C 150.126,23.2496 150.626,22.4162 151,21.5C 152.753,23.7585 154.919,25.4251 157.5,26.5C 163.821,32.97 171.155,38.1366 179.5,42C 185.5,42.3333 191.5,42.6667 197.5,43C 199.736,45.2841 202.402,46.7841 205.5,47.5C 203.557,52.3672 204.89,56.0339 209.5,58.5C 207.218,59.9004 205.718,59.2337 205,56.5C 204.833,57 204.667,57.5 204.5,58C 206.615,59.9525 208.615,62.1192 210.5,64.5C 210.28,62.7288 211.113,61.0621 213,59.5C 213.833,60.3333 214.667,61.1667 215.5,62C 218.235,61.8023 220.901,61.969 223.5,62.5C 221.458,63.7097 219.124,64.3764 216.5,64.5C 217.376,65.2508 218.376,65.7508 219.5,66C 218.354,66.6449 217.354,67.4783 216.5,68.5C 215.935,66.4904 214.935,64.8237 213.5,63.5C 213.446,64.6869 213.113,66.0202 212.5,67.5C 209.926,66.334 207.759,64.6674 206,62.5C 204.759,63.8767 204.592,65.21 205.5,66.5C 206.192,65.9747 206.692,65.3081 207,64.5C 207.837,66.3506 208.671,68.1839 209.5,70C 208.256,70.4561 207.423,69.9561 207,68.5C 206.333,69.8333 206.333,71.1667 207,72.5C 210.11,71.3266 210.277,71.8266 207.5,74C 208.5,74.5 209.5,75 210.5,75.5C 211.314,73.2338 211.814,70.9005 212,68.5C 212.915,69.3279 213.581,70.3279 214,71.5C 214.414,71.0426 214.914,70.7093 215.5,70.5C 217.078,71.6405 218.744,72.1405 220.5,72C 217.779,67.9713 218.445,67.4713 222.5,70.5C 222.977,71.4776 223.643,72.3109 224.5,73C 223.376,73.2492 222.376,73.7492 221.5,74.5C 223.902,75.5754 226.236,76.7421 228.5,78C 226.956,79.1871 225.289,79.5205 223.5,79C 221.324,77.3226 219.324,75.4893 217.5,73.5C 217.167,73.6667 216.833,73.8333 216.5,74C 217.728,76.1399 219.395,77.8066 221.5,79C 220.5,79.6667 219.5,79.6667 218.5,79C 216.61,77.1089 215.11,74.9422 214,72.5C 213.923,76.9484 216.089,79.9484 220.5,81.5C 219.167,82.1667 217.833,82.8333 216.5,83.5C 217.274,84.7112 218.107,84.7112 219,83.5C 219.617,84.4491 219.451,85.2825 218.5,86C 219.448,86.4828 220.448,86.6495 221.5,86.5C 221.833,84.5 222.167,82.5 222.5,80.5C 228.51,80.2245 228.843,81.0579 223.5,83C 225.515,84.5553 225.848,86.3886 224.5,88.5C 222.185,88.3138 219.851,87.9804 217.5,87.5C 216.252,85.5414 214.585,84.0414 212.5,83C 213.308,82.6924 213.975,82.1924 214.5,81.5C 211.906,78.9011 210.406,79.2344 210,82.5C 208.175,81.8971 206.341,81.2304 204.5,80.5C 205.98,79.8869 207.313,79.5536 208.5,79.5C 207.453,76.5698 205.787,74.0698 203.5,72C 204.059,71.2753 204.392,70.4419 204.5,69.5C 203.388,66.9309 202.055,64.5975 200.5,62.5C 200.646,65.1987 200.646,68.032 200.5,71C 201.672,72.997 203.005,74.8303 204.5,76.5C 203.367,79.1958 203.2,81.8624 204,84.5C 202.745,83.7894 201.579,82.956 200.5,82C 201.841,78.7383 201.508,78.2383 199.5,80.5C 195.875,78.7905 192.542,76.6238 189.5,74C 189.833,73.6667 190.167,73.3333 190.5,73C 189.099,71.323 187.765,69.6563 186.5,68C 186.548,66.967 186.881,66.6337 187.5,67C 189.972,68.7985 191.639,71.1318 192.5,74C 193.332,74.6877 193.998,74.521 194.5,73.5C 192.96,72.4679 192.46,71.1346 193,69.5C 194.487,70.7414 195.32,70.2414 195.5,68C 194.725,65.1776 194.058,62.3443 193.5,59.5C 192.5,59.5 191.5,59.5 190.5,59.5C 190.705,62.1143 190.705,64.4476 190.5,66.5C 189.5,65.8333 188.5,65.1667 187.5,64.5C 185.765,65.057 184.098,65.3903 182.5,65.5C 179.292,64.198 175.959,63.5313 172.5,63.5C 172.5,64.5 172.5,65.5 172.5,66.5C 174.199,66.6204 175.865,66.9537 177.5,67.5C 178.647,67.1822 179.481,66.5156 180,65.5C 180.49,66.7932 180.657,68.1266 180.5,69.5C 176.71,69.0077 176.044,69.841 178.5,72C 178.167,72.1667 177.833,72.3333 177.5,72.5C 176.108,71.3947 174.941,70.0614 174,68.5C 173.598,69.8721 173.098,71.2054 172.5,72.5C 174.459,74.5541 175.959,76.8874 177,79.5C 176.923,78.2624 177.089,77.2624 177.5,76.5C 179.167,77.5 180.5,78.8333 181.5,80.5C 178.884,81.5615 176.384,81.2282 174,79.5C 173.667,80.1667 173.333,80.8333 173,81.5C 171.812,80.4366 171.312,79.1033 171.5,77.5C 170.5,77.5 169.5,77.5 168.5,77.5C 168.281,76.325 168.614,75.325 169.5,74.5C 170.451,75.3256 171.451,75.4922 172.5,75C 170.939,74.059 169.605,72.8924 168.5,71.5C 171.015,70.8003 171.682,69.4669 170.5,67.5C 166.805,65.4528 163.138,63.4528 159.5,61.5C 162.381,66.0698 164.214,71.0698 165,76.5C 165.374,75.5838 165.874,74.7504 166.5,74C 164.025,72.2569 164.025,71.2569 166.5,71C 167.311,73.7197 167.311,76.2197 166.5,78.5C 166.938,79.5063 167.604,79.5063 168.5,78.5C 169.711,80.4219 171.044,82.2552 172.5,84C 170.271,84.0411 168.271,83.2078 166.5,81.5C 164.575,78.8828 162.742,76.2162 161,73.5C 160.075,74.0465 159.242,74.7132 158.5,75.5C 159.506,76.3957 159.506,77.0623 158.5,77.5C 157.3,76.4688 155.966,75.6355 154.5,75C 151.567,68.8983 150.4,69.065 151,75.5C 149.506,71.6959 148.672,72.0293 148.5,76.5C 153.25,76.0892 157.084,77.7559 160,81.5C 160.692,80.9747 161.192,80.3081 161.5,79.5C 160.572,78.2322 160.405,76.8989 161,75.5C 163.293,77.8482 163.46,80.0148 161.5,82C 163.5,82.6667 165.5,83.3333 167.5,84C 167.833,84.3333 168.167,84.6667 168.5,85C 164.551,85.8068 164.551,86.3068 168.5,86.5C 169.049,88.9013 169.882,91.2346 171,93.5C 171.741,94.6405 172.575,94.6405 173.5,93.5C 174.5,93.8333 175.167,94.5 175.5,95.5C 174.313,95.5536 172.98,95.8869 171.5,96.5C 172.668,99.4689 174.001,99.8022 175.5,97.5C 177.276,99.4468 179.276,99.7801 181.5,98.5C 181.023,97.5224 180.357,96.6891 179.5,96C 184.39,95.7619 184.39,95.0952 179.5,94C 178.366,92.984 178.699,92.3173 180.5,92C 178.416,90.2292 176.082,88.8958 173.5,88C 176.976,88.2022 180.309,89.0356 183.5,90.5C 183.886,96.9851 187.219,100.652 193.5,101.5C 189.362,102.67 185.862,101.336 183,97.5C 183.642,99.8072 184.642,102.141 186,104.5C 186.333,103.833 186.667,103.167 187,102.5C 187.49,103.793 187.657,105.127 187.5,106.5C 185.049,105.106 182.382,104.272 179.5,104C 178,103.167 176.833,102 176,100.5C 177.092,106.637 176.092,106.97 173,101.5C 172.1,102.77 170.934,103.77 169.5,104.5C 171.197,105.364 172.363,106.697 173,108.5C 173.743,106.355 174.576,106.189 175.5,108C 174.419,109.371 173.585,110.871 173,112.5C 172.43,109.156 171.264,108.823 169.5,111.5C 168.109,110.355 166.776,110.355 165.5,111.5C 167.078,112.298 168.744,112.798 170.5,113C 171.833,113.667 171.833,114.333 170.5,115C 172.595,115.556 172.762,116.056 171,116.5C 168.629,112.886 165.795,112.552 162.5,115.5C 161.636,113.803 160.303,112.637 158.5,112C 160.587,112.218 162.587,112.051 164.5,111.5C 163.167,110.833 161.833,110.167 160.5,109.5C 161.902,108.158 161.569,107.324 159.5,107C 159.799,105.68 159.966,104.18 160,102.5C 160.333,101.833 160.667,101.167 161,100.5C 162.167,102 163.333,103.5 164.5,105C 163.18,107.215 163.847,108.715 166.5,109.5C 167.5,109.167 168.167,108.5 168.5,107.5C 167.5,106.167 166.5,104.833 165.5,103.5C 166.167,103.167 166.833,102.833 167.5,102.5C 166.17,99.1512 166.67,98.8179 169,101.5C 168.852,100.175 169.018,99.0084 169.5,98C 167.195,96.8657 165.195,95.3657 163.5,93.5C 162.833,93.8333 162.167,94.1667 161.5,94.5C 164.522,95.0039 165.689,96.6706 165,99.5C 163.287,97.8071 161.287,96.4738 159,95.5C 158.586,95.9574 158.086,96.2907 157.5,96.5C 156.5,94.8333 155.167,93.5 153.5,92.5C 153.833,91.8333 154.167,91.1667 154.5,90.5C 153.066,89.7702 151.9,88.7702 151,87.5C 150.617,88.056 150.117,88.3893 149.5,88.5C 149.217,87.7109 148.717,87.0442 148,86.5C 147.706,78.798 147.04,71.1313 146,63.5C 145.088,60.6807 143.922,58.0141 142.5,55.5C 142.757,53.3076 143.757,51.6409 145.5,50.5C 146.496,50.5858 147.329,50.2524 148,49.5C 148.615,51.1161 149.615,52.4495 151,53.5C 151.333,51.9532 150.833,50.6199 149.5,49.5C 150.98,48.8869 152.313,48.5536 153.5,48.5C 152.453,45.5698 150.787,43.0698 148.5,41C 148.772,38.2723 148.772,35.6056 148.5,33C 147.692,32.6924 147.025,32.1924 146.5,31.5C 147.833,30.8333 149.167,30.1667 150.5,29.5C 147.286,28.9561 144.286,27.9561 141.5,26.5C 140.914,26.7093 140.414,27.0426 140,27.5C 137.904,26.2845 138.071,25.4512 140.5,25C 138.968,24.3005 137.968,23.1338 137.5,21.5C 138.223,19.8361 137.89,18.1694 136.5,16.5C 139.715,15.5522 140.048,14.2189 137.5,12.5C 138.309,10.9291 138.643,9.26241 138.5,7.5C 139.5,7.5 140.5,7.5 141.5,7.5 Z"/></g>
<g><path style="opacity:1" fill="#b3d980" d="M 159.5,61.5 C 158.022,61.762 156.689,61.4287 155.5,60.5C 156.167,60.1667 156.833,59.8333 157.5,59.5C 156.674,58.549 156.508,57.549 157,56.5C 158.049,57.5171 159.216,57.6838 160.5,57C 158.714,56.2155 157.214,55.0488 156,53.5C 155.667,54.1667 155.333,54.8333 155,55.5C 154.56,53.9238 153.727,52.5904 152.5,51.5C 153.274,50.2888 154.107,50.2888 155,51.5C 155.406,48.2344 156.906,47.9011 159.5,50.5C 158.975,51.1924 158.308,51.6924 157.5,52C 159.585,53.0414 161.252,54.5414 162.5,56.5C 164.851,56.9804 167.185,57.3138 169.5,57.5C 170.848,55.3886 170.515,53.5553 168.5,52C 173.843,50.0579 173.51,49.2245 167.5,49.5C 167.167,51.5 166.833,53.5 166.5,55.5C 165.448,55.6495 164.448,55.4828 163.5,55C 164.451,54.2825 164.617,53.4491 164,52.5C 163.107,53.7112 162.274,53.7112 161.5,52.5C 162.833,51.8333 164.167,51.1667 165.5,50.5C 161.089,48.9484 158.923,45.9484 159,41.5C 160.11,43.9422 161.61,46.1089 163.5,48C 167.193,48.5506 167.36,48.0506 164,46.5C 163.535,45.0692 162.701,43.9025 161.5,43C 161.833,42.8333 162.167,42.6667 162.5,42.5C 164.324,44.4893 166.324,46.3226 168.5,48C 169.899,48.5946 171.232,48.4279 172.5,47.5C 173.598,49.6317 174.598,51.7984 175.5,54C 176.483,54.5908 177.15,54.2575 177.5,53C 176.548,51.6996 176.548,50.533 177.5,49.5C 178.386,50.325 178.719,51.325 178.5,52.5C 180.144,52.7135 181.644,52.3802 183,51.5C 185.265,58.2472 184.265,58.9139 180,53.5C 178.079,55.0028 175.912,55.6695 173.5,55.5C 173.719,54.325 173.386,53.325 172.5,52.5C 172.167,52.8333 171.833,53.1667 171.5,53.5C 172.468,56.2732 173.801,58.7732 175.5,61C 172.899,63.4983 171.565,62.9983 171.5,59.5C 169.774,59.1854 168.107,59.0187 166.5,59C 168.304,60.5424 169.971,62.2091 171.5,64C 170.667,64.1667 169.833,64.3333 169,64.5C 166.038,62.8961 163.038,61.2294 160,59.5C 159.536,60.0944 159.369,60.7611 159.5,61.5 Z"/></g>
<g><path style="opacity:1" fill="#b4da82" d="M 205.5,47.5 C 211.617,47.8134 216.784,50.1467 221,54.5C 227.76,67.8496 233.26,81.683 237.5,96C 237.472,97.0698 237.139,97.9032 236.5,98.5C 235.977,96.0428 235.144,93.7094 234,91.5C 231.894,93.291 229.394,93.9577 226.5,93.5C 226.5,92.5 226.5,91.5 226.5,90.5C 224.774,90.1854 223.107,90.0187 221.5,90C 223.304,91.5424 224.971,93.2091 226.5,95C 225.667,95.1667 224.833,95.3333 224,95.5C 221.038,93.8961 218.038,92.2294 215,90.5C 214.536,91.0944 214.369,91.7611 214.5,92.5C 213.022,92.762 211.689,92.4287 210.5,91.5C 211.167,91.1667 211.833,90.8333 212.5,90.5C 211.674,89.549 211.508,88.549 212,87.5C 213.049,88.5171 214.216,88.6838 215.5,88C 213.714,87.2155 212.214,86.0488 211,84.5C 210.228,85.8491 209.061,86.6824 207.5,87C 210.375,87.8945 210.708,88.7278 208.5,89.5C 204.152,86.7696 199.985,83.7696 196,80.5C 195.251,81.635 195.417,82.635 196.5,83.5C 198.64,84.4733 200.307,85.9733 201.5,88C 199.613,88.1626 198.113,87.3293 197,85.5C 197.083,88.1194 197.25,90.786 197.5,93.5C 202.12,94.3674 202.786,96.7008 199.5,100.5C 199.233,98.7 198.567,96.7 197.5,94.5C 193.287,94.0567 189.954,92.0567 187.5,88.5C 188.167,88.1667 188.833,87.8333 189.5,87.5C 188.833,86.8333 188.167,86.1667 187.5,85.5C 188.145,84.2679 188.311,82.9346 188,81.5C 190.339,84.1756 192.172,87.1756 193.5,90.5C 194.451,91.3256 195.451,91.4922 196.5,91C 195.044,88.0767 193.711,85.0767 192.5,82C 193.494,79.0825 192.994,78.9158 191,81.5C 187.668,79.5571 187.834,78.3905 191.5,78C 190.601,76.7638 189.434,75.9304 188,75.5C 187.53,80.279 185.53,80.6124 182,76.5C 181.835,78.678 182.668,80.5114 184.5,82C 183.5,82.3333 182.5,82.6667 181.5,83C 183.384,83.2163 185.051,83.883 186.5,85C 185.596,88.7633 185.762,92.5967 187,96.5C 187.333,96.8333 187.667,97.1667 188,97.5C 188.388,95.2853 189.388,93.952 191,93.5C 191.98,95.0589 192.813,96.7256 193.5,98.5C 194.711,97.7261 194.711,96.8928 193.5,96C 195.877,95.9666 197.21,97.2999 197.5,100C 194.712,102.074 195.045,103.574 198.5,104.5C 199.167,104.167 199.833,103.833 200.5,103.5C 201.833,105.167 201.833,106.833 200.5,108.5C 199.717,106.712 198.384,105.712 196.5,105.5C 195.341,104.26 194.341,102.926 193.5,101.5C 187.219,100.652 183.886,96.9851 183.5,90.5C 180.309,89.0356 176.976,88.2022 173.5,88C 176.082,88.8958 178.416,90.2292 180.5,92C 178.699,92.3173 178.366,92.984 179.5,94C 184.39,95.0952 184.39,95.7619 179.5,96C 180.357,96.6891 181.023,97.5224 181.5,98.5C 179.276,99.7801 177.276,99.4468 175.5,97.5C 174.001,99.8022 172.668,99.4689 171.5,96.5C 172.98,95.8869 174.313,95.5536 175.5,95.5C 175.167,94.5 174.5,93.8333 173.5,93.5C 172.575,94.6405 171.741,94.6405 171,93.5C 169.882,91.2346 169.049,88.9013 168.5,86.5C 164.551,86.3068 164.551,85.8068 168.5,85C 168.167,84.6667 167.833,84.3333 167.5,84C 165.5,83.3333 163.5,82.6667 161.5,82C 163.46,80.0148 163.293,77.8482 161,75.5C 160.405,76.8989 160.572,78.2322 161.5,79.5C 161.192,80.3081 160.692,80.9747 160,81.5C 157.084,77.7559 153.25,76.0892 148.5,76.5C 148.672,72.0293 149.506,71.6959 151,75.5C 150.4,69.065 151.567,68.8983 154.5,75C 155.966,75.6355 157.3,76.4688 158.5,77.5C 159.506,77.0623 159.506,76.3957 158.5,75.5C 159.242,74.7132 160.075,74.0465 161,73.5C 162.742,76.2162 164.575,78.8828 166.5,81.5C 168.271,83.2078 170.271,84.0411 172.5,84C 171.044,82.2552 169.711,80.4219 168.5,78.5C 167.604,79.5063 166.938,79.5063 166.5,78.5C 167.311,76.2197 167.311,73.7197 166.5,71C 164.025,71.2569 164.025,72.2569 166.5,74C 165.874,74.7504 165.374,75.5838 165,76.5C 164.214,71.0698 162.381,66.0698 159.5,61.5C 163.138,63.4528 166.805,65.4528 170.5,67.5C 171.682,69.4669 171.015,70.8003 168.5,71.5C 169.605,72.8924 170.939,74.059 172.5,75C 171.451,75.4922 170.451,75.3256 169.5,74.5C 168.614,75.325 168.281,76.325 168.5,77.5C 169.5,77.5 170.5,77.5 171.5,77.5C 171.312,79.1033 171.812,80.4366 173,81.5C 173.333,80.8333 173.667,80.1667 174,79.5C 176.384,81.2282 178.884,81.5615 181.5,80.5C 180.5,78.8333 179.167,77.5 177.5,76.5C 177.089,77.2624 176.923,78.2624 177,79.5C 175.959,76.8874 174.459,74.5541 172.5,72.5C 173.098,71.2054 173.598,69.8721 174,68.5C 174.941,70.0614 176.108,71.3947 177.5,72.5C 177.833,72.3333 178.167,72.1667 178.5,72C 176.044,69.841 176.71,69.0077 180.5,69.5C 180.657,68.1266 180.49,66.7932 180,65.5C 179.481,66.5156 178.647,67.1822 177.5,67.5C 175.865,66.9537 174.199,66.6204 172.5,66.5C 172.5,65.5 172.5,64.5 172.5,63.5C 175.959,63.5313 179.292,64.198 182.5,65.5C 184.098,65.3903 185.765,65.057 187.5,64.5C 188.5,65.1667 189.5,65.8333 190.5,66.5C 190.705,64.4476 190.705,62.1143 190.5,59.5C 191.5,59.5 192.5,59.5 193.5,59.5C 194.058,62.3443 194.725,65.1776 195.5,68C 195.32,70.2414 194.487,70.7414 193,69.5C 192.46,71.1346 192.96,72.4679 194.5,73.5C 193.998,74.521 193.332,74.6877 192.5,74C 191.639,71.1318 189.972,68.7985 187.5,67C 186.881,66.6337 186.548,66.967 186.5,68C 187.765,69.6563 189.099,71.323 190.5,73C 190.167,73.3333 189.833,73.6667 189.5,74C 192.542,76.6238 195.875,78.7905 199.5,80.5C 201.508,78.2383 201.841,78.7383 200.5,82C 201.579,82.956 202.745,83.7894 204,84.5C 203.2,81.8624 203.367,79.1958 204.5,76.5C 203.005,74.8303 201.672,72.997 200.5,71C 200.646,68.032 200.646,65.1987 200.5,62.5C 202.055,64.5975 203.388,66.9309 204.5,69.5C 204.392,70.4419 204.059,71.2753 203.5,72C 205.787,74.0698 207.453,76.5698 208.5,79.5C 207.313,79.5536 205.98,79.8869 204.5,80.5C 206.341,81.2304 208.175,81.8971 210,82.5C 210.406,79.2344 211.906,78.9011 214.5,81.5C 213.975,82.1924 213.308,82.6924 212.5,83C 214.585,84.0414 216.252,85.5414 217.5,87.5C 219.851,87.9804 222.185,88.3138 224.5,88.5C 225.848,86.3886 225.515,84.5553 223.5,83C 228.843,81.0579 228.51,80.2245 222.5,80.5C 222.167,82.5 221.833,84.5 221.5,86.5C 220.448,86.6495 219.448,86.4828 218.5,86C 219.451,85.2825 219.617,84.4491 219,83.5C 218.107,84.7112 217.274,84.7112 216.5,83.5C 217.833,82.8333 219.167,82.1667 220.5,81.5C 216.089,79.9484 213.923,76.9484 214,72.5C 215.11,74.9422 216.61,77.1089 218.5,79C 219.5,79.6667 220.5,79.6667 221.5,79C 219.395,77.8066 217.728,76.1399 216.5,74C 216.833,73.8333 217.167,73.6667 217.5,73.5C 219.324,75.4893 221.324,77.3226 223.5,79C 225.289,79.5205 226.956,79.1871 228.5,78C 226.236,76.7421 223.902,75.5754 221.5,74.5C 222.376,73.7492 223.376,73.2492 224.5,73C 223.643,72.3109 222.977,71.4776 222.5,70.5C 218.445,67.4713 217.779,67.9713 220.5,72C 218.744,72.1405 217.078,71.6405 215.5,70.5C 214.914,70.7093 214.414,71.0426 214,71.5C 213.581,70.3279 212.915,69.3279 212,68.5C 211.814,70.9005 211.314,73.2338 210.5,75.5C 209.5,75 208.5,74.5 207.5,74C 210.277,71.8266 210.11,71.3266 207,72.5C 206.333,71.1667 206.333,69.8333 207,68.5C 207.423,69.9561 208.256,70.4561 209.5,70C 208.671,68.1839 207.837,66.3506 207,64.5C 206.692,65.3081 206.192,65.9747 205.5,66.5C 204.592,65.21 204.759,63.8767 206,62.5C 207.759,64.6674 209.926,66.334 212.5,67.5C 213.113,66.0202 213.446,64.6869 213.5,63.5C 214.935,64.8237 215.935,66.4904 216.5,68.5C 217.354,67.4783 218.354,66.6449 219.5,66C 218.376,65.7508 217.376,65.2508 216.5,64.5C 219.124,64.3764 221.458,63.7097 223.5,62.5C 220.901,61.969 218.235,61.8023 215.5,62C 214.667,61.1667 213.833,60.3333 213,59.5C 211.113,61.0621 210.28,62.7288 210.5,64.5C 208.615,62.1192 206.615,59.9525 204.5,58C 204.667,57.5 204.833,57 205,56.5C 205.718,59.2337 207.218,59.9004 209.5,58.5C 204.89,56.0339 203.557,52.3672 205.5,47.5 Z"/></g>
<g><path style="opacity:1" fill="#badd8c" d="M 214.5,92.5 C 215.028,93.7206 215.695,94.8873 216.5,96C 215.151,96.7724 214.318,97.9391 214,99.5C 213.411,97.1367 211.911,96.1367 209.5,96.5C 209.167,92.1667 206.833,89.8333 202.5,89.5C 202.181,91.7505 202.681,93.7505 204,95.5C 203.737,94.0494 203.904,92.7161 204.5,91.5C 205.66,93.0725 206.66,94.7392 207.5,96.5C 207.167,97.1667 206.833,97.8333 206.5,98.5C 204.099,95.5873 202.766,95.9206 202.5,99.5C 204.308,99.4914 205.975,99.9914 207.5,101C 206.833,101.333 206.167,101.667 205.5,102C 206.554,103.388 206.72,104.888 206,106.5C 205.751,105.376 205.251,104.376 204.5,103.5C 203.679,106.447 203.179,109.447 203,112.5C 202.626,111.584 202.126,110.75 201.5,110C 199.131,109.464 197.131,108.297 195.5,106.5C 195.624,105.893 195.957,105.56 196.5,105.5C 198.384,105.712 199.717,106.712 200.5,108.5C 201.833,106.833 201.833,105.167 200.5,103.5C 199.833,103.833 199.167,104.167 198.5,104.5C 195.045,103.574 194.712,102.074 197.5,100C 197.21,97.2999 195.877,95.9666 193.5,96C 194.711,96.8928 194.711,97.7261 193.5,98.5C 192.813,96.7256 191.98,95.0589 191,93.5C 189.388,93.952 188.388,95.2853 188,97.5C 187.667,97.1667 187.333,96.8333 187,96.5C 185.762,92.5967 185.596,88.7633 186.5,85C 185.051,83.883 183.384,83.2163 181.5,83C 182.5,82.6667 183.5,82.3333 184.5,82C 182.668,80.5114 181.835,78.678 182,76.5C 185.53,80.6124 187.53,80.279 188,75.5C 189.434,75.9304 190.601,76.7638 191.5,78C 187.834,78.3905 187.668,79.5571 191,81.5C 192.994,78.9158 193.494,79.0825 192.5,82C 193.711,85.0767 195.044,88.0767 196.5,91C 195.451,91.4922 194.451,91.3256 193.5,90.5C 192.172,87.1756 190.339,84.1756 188,81.5C 188.311,82.9346 188.145,84.2679 187.5,85.5C 188.167,86.1667 188.833,86.8333 189.5,87.5C 188.833,87.8333 188.167,88.1667 187.5,88.5C 189.954,92.0567 193.287,94.0567 197.5,94.5C 198.567,96.7 199.233,98.7 199.5,100.5C 202.786,96.7008 202.12,94.3674 197.5,93.5C 197.25,90.786 197.083,88.1194 197,85.5C 198.113,87.3293 199.613,88.1626 201.5,88C 200.307,85.9733 198.64,84.4733 196.5,83.5C 195.417,82.635 195.251,81.635 196,80.5C 199.985,83.7696 204.152,86.7696 208.5,89.5C 210.708,88.7278 210.375,87.8945 207.5,87C 209.061,86.6824 210.228,85.8491 211,84.5C 212.214,86.0488 213.714,87.2155 215.5,88C 214.216,88.6838 213.049,88.5171 212,87.5C 211.508,88.549 211.674,89.549 212.5,90.5C 211.833,90.8333 211.167,91.1667 210.5,91.5C 211.689,92.4287 213.022,92.762 214.5,92.5 Z"/></g>
<g><path style="opacity:1" fill="#b3d980" d="M 236.5,99.5 C 235.071,102.696 233.405,105.696 231.5,108.5C 231.5,106.833 231.5,105.167 231.5,103.5C 230.5,103.5 229.5,103.5 228.5,103.5C 228.116,101.335 228.783,99.6685 230.5,98.5C 231.59,99.3914 231.59,100.391 230.5,101.5C 231.5,102.833 232.5,102.833 233.5,101.5C 232.948,99.6666 232.115,97.9999 231,96.5C 229.989,97.3366 228.822,97.67 227.5,97.5C 227.5,96.5 227.5,95.5 227.5,94.5C 228.873,94.3433 230.207,94.51 231.5,95C 233.037,96.7073 234.704,98.2073 236.5,99.5 Z"/></g>
<g><path style="opacity:1" fill="#b6db85" d="M 214.5,92.5 C 214.369,91.7611 214.536,91.0944 215,90.5C 218.038,92.2294 221.038,93.8961 224,95.5C 224.833,95.3333 225.667,95.1667 226.5,95C 224.971,93.2091 223.304,91.5424 221.5,90C 223.107,90.0187 224.774,90.1854 226.5,90.5C 226.5,91.5 226.5,92.5 226.5,93.5C 229.394,93.9577 231.894,93.291 234,91.5C 235.144,93.7094 235.977,96.0428 236.5,98.5C 236.5,98.8333 236.5,99.1667 236.5,99.5C 234.704,98.2073 233.037,96.7073 231.5,95C 230.207,94.51 228.873,94.3433 227.5,94.5C 227.5,95.5 227.5,96.5 227.5,97.5C 228.822,97.67 229.989,97.3366 231,96.5C 232.115,97.9999 232.948,99.6666 233.5,101.5C 232.5,102.833 231.5,102.833 230.5,101.5C 231.59,100.391 231.59,99.3914 230.5,98.5C 228.783,99.6685 228.116,101.335 228.5,103.5C 229.5,103.5 230.5,103.5 231.5,103.5C 231.5,105.167 231.5,106.833 231.5,108.5C 230.761,112.081 229.095,115.081 226.5,117.5C 225.332,121.671 223.999,125.671 222.5,129.5C 219.104,129.367 218.771,128.367 221.5,126.5C 220.726,125.289 219.893,125.289 219,126.5C 218.727,124.899 218.227,123.399 217.5,122C 218.951,122.263 220.284,122.096 221.5,121.5C 218.337,120.676 216.67,118.676 216.5,115.5C 217.873,115.657 219.207,115.49 220.5,115C 218.347,114.901 216.681,114.067 215.5,112.5C 213.307,110.479 210.807,108.812 208,107.5C 207.5,107.667 207,107.833 206.5,108C 210.182,109.32 211.682,111.82 211,115.5C 209.301,114.594 207.467,114.261 205.5,114.5C 205.261,116.467 205.594,118.301 206.5,120C 205.833,120.333 205.167,120.667 204.5,121C 205.451,121.718 205.617,122.551 205,123.5C 200.575,122.69 197.908,120.023 197,115.5C 194.609,113.474 192.443,113.474 190.5,115.5C 187.787,112.786 186.954,113.453 188,117.5C 190.381,116.565 192.881,116.232 195.5,116.5C 195.688,119.206 196.688,121.539 198.5,123.5C 196.259,122.433 194.426,120.766 193,118.5C 192.751,119.624 192.251,120.624 191.5,121.5C 189.269,120.097 186.936,118.93 184.5,118C 185.38,116.644 185.714,115.144 185.5,113.5C 183.622,112.792 181.955,111.626 180.5,110C 183.028,108.983 183.028,107.816 180.5,106.5C 183.642,105.913 185.975,107.247 187.5,110.5C 188.626,109.192 188.626,107.858 187.5,106.5C 187.657,105.127 187.49,103.793 187,102.5C 186.667,103.167 186.333,103.833 186,104.5C 184.642,102.141 183.642,99.8072 183,97.5C 185.862,101.336 189.362,102.67 193.5,101.5C 194.341,102.926 195.341,104.26 196.5,105.5C 195.957,105.56 195.624,105.893 195.5,106.5C 197.131,108.297 199.131,109.464 201.5,110C 202.126,110.75 202.626,111.584 203,112.5C 203.179,109.447 203.679,106.447 204.5,103.5C 205.251,104.376 205.751,105.376 206,106.5C 206.72,104.888 206.554,103.388 205.5,102C 206.167,101.667 206.833,101.333 207.5,101C 205.975,99.9914 204.308,99.4914 202.5,99.5C 202.766,95.9206 204.099,95.5873 206.5,98.5C 206.833,97.8333 207.167,97.1667 207.5,96.5C 206.66,94.7392 205.66,93.0725 204.5,91.5C 203.904,92.7161 203.737,94.0494 204,95.5C 202.681,93.7505 202.181,91.7505 202.5,89.5C 206.833,89.8333 209.167,92.1667 209.5,96.5C 211.911,96.1367 213.411,97.1367 214,99.5C 214.318,97.9391 215.151,96.7724 216.5,96C 215.695,94.8873 215.028,93.7206 214.5,92.5 Z"/></g>
<g><path style="opacity:1" fill="#b4da83" d="M 187.5,106.5 C 188.626,107.858 188.626,109.192 187.5,110.5C 185.975,107.247 183.642,105.913 180.5,106.5C 183.028,107.816 183.028,108.983 180.5,110C 181.955,111.626 183.622,112.792 185.5,113.5C 183.914,114.148 182.247,114.648 180.5,115C 181.416,115.374 182.25,115.874 183,116.5C 183.375,119 184.208,121.333 185.5,123.5C 185.167,123.833 184.833,124.167 184.5,124.5C 183.868,122.263 182.535,120.597 180.5,119.5C 180.167,119.833 179.833,120.167 179.5,120.5C 180.5,121.333 181.5,122.167 182.5,123C 181.809,124.067 181.309,125.234 181,126.5C 179.484,123.949 178.651,124.282 178.5,127.5C 176.549,127.773 175.049,127.107 174,125.5C 173.25,126.126 172.416,126.626 171.5,127C 173.749,128.724 176.083,129.89 178.5,130.5C 177.833,130.833 177.167,131.167 176.5,131.5C 179.167,132.833 179.167,134.167 176.5,135.5C 177.735,138.085 179.402,140.252 181.5,142C 181.167,142.5 180.833,143 180.5,143.5C 179.646,142.478 178.646,141.645 177.5,141C 175.439,137.57 173.105,134.404 170.5,131.5C 171.025,130.808 171.692,130.308 172.5,130C 170.071,126.959 169.071,123.459 169.5,119.5C 170.552,119.649 171.552,119.483 172.5,119C 171.234,118.691 170.067,118.191 169,117.5C 167.89,119.397 167.724,121.23 168.5,123C 167.5,123.333 166.5,123.667 165.5,124C 169.236,125.507 169.236,126.34 165.5,126.5C 165.167,129.5 166.5,130.833 169.5,130.5C 169.859,134.722 171.859,137.889 175.5,140C 174.906,140.464 174.239,140.631 173.5,140.5C 171.486,138.808 169.152,137.475 166.5,136.5C 167.376,135.749 168.376,135.249 169.5,135C 168.195,132.852 166.362,131.352 164,130.5C 163.493,131.996 163.993,133.163 165.5,134C 163.744,134.14 162.078,133.64 160.5,132.5C 159.914,132.709 159.414,133.043 159,133.5C 158.209,131.396 156.709,130.063 154.5,129.5C 155.391,128.41 156.391,128.41 157.5,129.5C 158.113,128.02 158.446,126.687 158.5,125.5C 159.935,126.824 160.935,128.49 161.5,130.5C 162.354,129.478 163.354,128.645 164.5,128C 161.332,127.418 160.999,126.418 163.5,125C 161.152,124.654 159.319,123.487 158,121.5C 156.113,123.062 155.28,124.729 155.5,126.5C 151.003,122.452 151.67,120.285 157.5,120C 154.854,119.503 152.187,119.336 149.5,119.5C 152.808,116.365 154.475,112.532 154.5,108C 154.481,101.029 152.814,94.5286 149.5,88.5C 150.117,88.3893 150.617,88.056 151,87.5C 151.9,88.7702 153.066,89.7702 154.5,90.5C 154.167,91.1667 153.833,91.8333 153.5,92.5C 155.167,93.5 156.5,94.8333 157.5,96.5C 158.086,96.2907 158.586,95.9574 159,95.5C 161.287,96.4738 163.287,97.8071 165,99.5C 165.689,96.6706 164.522,95.0039 161.5,94.5C 162.167,94.1667 162.833,93.8333 163.5,93.5C 165.195,95.3657 167.195,96.8657 169.5,98C 169.018,99.0084 168.852,100.175 169,101.5C 166.67,98.8179 166.17,99.1512 167.5,102.5C 166.833,102.833 166.167,103.167 165.5,103.5C 166.5,104.833 167.5,106.167 168.5,107.5C 168.167,108.5 167.5,109.167 166.5,109.5C 163.847,108.715 163.18,107.215 164.5,105C 163.333,103.5 162.167,102 161,100.5C 160.667,101.167 160.333,101.833 160,102.5C 159.966,104.18 159.799,105.68 159.5,107C 161.569,107.324 161.902,108.158 160.5,109.5C 161.833,110.167 163.167,110.833 164.5,111.5C 162.587,112.051 160.587,112.218 158.5,112C 160.303,112.637 161.636,113.803 162.5,115.5C 165.795,112.552 168.629,112.886 171,116.5C 172.762,116.056 172.595,115.556 170.5,115C 171.833,114.333 171.833,113.667 170.5,113C 168.744,112.798 167.078,112.298 165.5,111.5C 166.776,110.355 168.109,110.355 169.5,111.5C 171.264,108.823 172.43,109.156 173,112.5C 173.585,110.871 174.419,109.371 175.5,108C 174.576,106.189 173.743,106.355 173,108.5C 172.363,106.697 171.197,105.364 169.5,104.5C 170.934,103.77 172.1,102.77 173,101.5C 176.092,106.97 177.092,106.637 176,100.5C 176.833,102 178,103.167 179.5,104C 182.382,104.272 185.049,105.106 187.5,106.5 Z"/></g>
<g><path style="opacity:1" fill="#b9dc8a" d="M 215.5,112.5 C 214.732,113.263 214.232,114.263 214,115.5C 213.346,114.304 212.846,114.304 212.5,115.5C 215.295,116.248 215.962,117.748 214.5,120C 214.759,121.261 215.426,122.261 216.5,123C 215.451,123.492 214.451,123.326 213.5,122.5C 212.692,122.808 212.025,123.308 211.5,124C 213.311,126.384 215.645,128.051 218.5,129C 214.658,127.745 210.658,126.578 206.5,125.5C 205.417,126.365 205.251,127.365 206,128.5C 206.414,128.043 206.914,127.709 207.5,127.5C 208.85,128.95 210.516,129.617 212.5,129.5C 212.5,130.833 212.5,132.167 212.5,133.5C 210.876,133.64 209.71,132.973 209,131.5C 208.833,132 208.667,132.5 208.5,133C 210.024,134.194 211.19,135.694 212,137.5C 212.402,136.128 212.902,134.795 213.5,133.5C 214.002,132.479 214.668,132.312 215.5,133C 214.253,134.458 214.253,135.958 215.5,137.5C 210.343,138.987 210.676,139.653 216.5,139.5C 216.5,140.833 216.5,142.167 216.5,143.5C 215.21,142.942 214.377,141.942 214,140.5C 213.316,141.784 213.483,142.951 214.5,144C 211.874,146.029 210.874,145.195 211.5,141.5C 209.058,141.119 208.391,141.786 209.5,143.5C 208.902,144.795 208.402,146.128 208,147.5C 207.932,144.681 206.766,142.514 204.5,141C 208.49,140.815 209.823,138.982 208.5,135.5C 208.331,136.397 207.998,137.397 207.5,138.5C 205.719,136.527 203.552,135.193 201,134.5C 200.517,135.448 200.351,136.448 200.5,137.5C 206.261,137.709 206.594,138.542 201.5,140C 203.405,141.815 205.072,143.815 206.5,146C 205.5,146.667 204.5,146.667 203.5,146C 201.976,143.642 199.976,141.809 197.5,140.5C 198.025,139.808 198.692,139.308 199.5,139C 198.328,138.581 197.328,137.915 196.5,137C 198.107,135.951 198.773,134.451 198.5,132.5C 199.873,132.657 201.207,132.49 202.5,132C 200.589,130.504 198.589,129.171 196.5,128C 198.167,127.333 199.833,127.333 201.5,128C 202.304,129.771 203.471,131.271 205,132.5C 204.581,130.497 203.747,128.497 202.5,126.5C 203.025,125.808 203.692,125.308 204.5,125C 202.482,124.495 200.482,123.995 198.5,123.5C 196.688,121.539 195.688,119.206 195.5,116.5C 192.881,116.232 190.381,116.565 188,117.5C 186.954,113.453 187.787,112.786 190.5,115.5C 192.443,113.474 194.609,113.474 197,115.5C 197.908,120.023 200.575,122.69 205,123.5C 205.617,122.551 205.451,121.718 204.5,121C 205.167,120.667 205.833,120.333 206.5,120C 205.594,118.301 205.261,116.467 205.5,114.5C 207.467,114.261 209.301,114.594 211,115.5C 211.682,111.82 210.182,109.32 206.5,108C 207,107.833 207.5,107.667 208,107.5C 210.807,108.812 213.307,110.479 215.5,112.5 Z"/></g>
<g><path style="opacity:1" fill="#b2d97f" d="M 215.5,112.5 C 216.681,114.067 218.347,114.901 220.5,115C 219.207,115.49 217.873,115.657 216.5,115.5C 216.67,118.676 218.337,120.676 221.5,121.5C 220.284,122.096 218.951,122.263 217.5,122C 218.227,123.399 218.727,124.899 219,126.5C 219.893,125.289 220.726,125.289 221.5,126.5C 218.771,128.367 219.104,129.367 222.5,129.5C 221.068,134.478 219.068,139.144 216.5,143.5C 216.5,142.167 216.5,140.833 216.5,139.5C 210.676,139.653 210.343,138.987 215.5,137.5C 214.253,135.958 214.253,134.458 215.5,133C 214.668,132.312 214.002,132.479 213.5,133.5C 212.902,134.795 212.402,136.128 212,137.5C 211.19,135.694 210.024,134.194 208.5,133C 208.667,132.5 208.833,132 209,131.5C 209.71,132.973 210.876,133.64 212.5,133.5C 212.5,132.167 212.5,130.833 212.5,129.5C 210.516,129.617 208.85,128.95 207.5,127.5C 206.914,127.709 206.414,128.043 206,128.5C 205.251,127.365 205.417,126.365 206.5,125.5C 210.658,126.578 214.658,127.745 218.5,129C 215.645,128.051 213.311,126.384 211.5,124C 212.025,123.308 212.692,122.808 213.5,122.5C 214.451,123.326 215.451,123.492 216.5,123C 215.426,122.261 214.759,121.261 214.5,120C 215.962,117.748 215.295,116.248 212.5,115.5C 212.846,114.304 213.346,114.304 214,115.5C 214.232,114.263 214.732,113.263 215.5,112.5 Z"/></g>
<g><path style="opacity:1" fill="#b9dc8a" d="M 185.5,113.5 C 185.714,115.144 185.38,116.644 184.5,118C 186.936,118.93 189.269,120.097 191.5,121.5C 192.251,120.624 192.751,119.624 193,118.5C 194.426,120.766 196.259,122.433 198.5,123.5C 199.463,124.363 199.463,125.03 198.5,125.5C 196.547,124.976 194.88,123.976 193.5,122.5C 193.5,124.167 193.5,125.833 193.5,127.5C 192.52,126.019 191.353,124.685 190,123.5C 189.493,124.996 189.993,126.163 191.5,127C 189.944,128.599 188.277,130.099 186.5,131.5C 187.655,132.95 189.155,133.95 191,134.5C 191.617,135.449 191.451,136.282 190.5,137C 193.217,138.82 195.717,140.986 198,143.5C 198.483,144.448 198.649,145.448 198.5,146.5C 201.462,146.117 202.462,147.117 201.5,149.5C 198.53,148.573 196.697,146.573 196,143.5C 195.667,144.5 195.333,145.5 195,146.5C 192.966,145.138 190.799,144.138 188.5,143.5C 188.5,142.5 188.5,141.5 188.5,140.5C 186.856,140.714 185.356,140.38 184,139.5C 183.409,138.517 183.743,137.85 185,137.5C 186.301,138.893 187.801,139.393 189.5,139C 188.773,137.601 188.273,136.101 188,134.5C 187.333,135.167 186.667,135.833 186,136.5C 185.377,132.068 184.377,131.735 183,135.5C 181.806,133.377 181.14,131.043 181,128.5C 180.39,132.236 180.723,135.903 182,139.5C 184.636,141.578 187.136,143.911 189.5,146.5C 187.74,146.438 185.906,146.438 184,146.5C 183.667,145.833 183.333,145.167 183,144.5C 181.644,145.38 180.144,145.714 178.5,145.5C 178.719,144.325 178.386,143.325 177.5,142.5C 176.548,143.533 176.548,144.7 177.5,146C 177.15,147.257 176.483,147.591 175.5,147C 174.331,144.993 173.665,142.827 173.5,140.5C 174.239,140.631 174.906,140.464 175.5,140C 171.859,137.889 169.859,134.722 169.5,130.5C 166.5,130.833 165.167,129.5 165.5,126.5C 169.236,126.34 169.236,125.507 165.5,124C 166.5,123.667 167.5,123.333 168.5,123C 167.724,121.23 167.89,119.397 169,117.5C 170.067,118.191 171.234,118.691 172.5,119C 171.552,119.483 170.552,119.649 169.5,119.5C 169.071,123.459 170.071,126.959 172.5,130C 171.692,130.308 171.025,130.808 170.5,131.5C 173.105,134.404 175.439,137.57 177.5,141C 178.646,141.645 179.646,142.478 180.5,143.5C 180.833,143 181.167,142.5 181.5,142C 179.402,140.252 177.735,138.085 176.5,135.5C 179.167,134.167 179.167,132.833 176.5,131.5C 177.167,131.167 177.833,130.833 178.5,130.5C 176.083,129.89 173.749,128.724 171.5,127C 172.416,126.626 173.25,126.126 174,125.5C 175.049,127.107 176.549,127.773 178.5,127.5C 178.651,124.282 179.484,123.949 181,126.5C 181.309,125.234 181.809,124.067 182.5,123C 181.5,122.167 180.5,121.333 179.5,120.5C 179.833,120.167 180.167,119.833 180.5,119.5C 182.535,120.597 183.868,122.263 184.5,124.5C 184.833,124.167 185.167,123.833 185.5,123.5C 184.208,121.333 183.375,119 183,116.5C 182.25,115.874 181.416,115.374 180.5,115C 182.247,114.648 183.914,114.148 185.5,113.5 Z"/></g>
<g><path style="opacity:1" fill="#b9dc8a" d="M 148.5,119.5 C 148.833,119.5 149.167,119.5 149.5,119.5C 152.187,119.336 154.854,119.503 157.5,120C 151.67,120.285 151.003,122.452 155.5,126.5C 155.28,124.729 156.113,123.062 158,121.5C 159.319,123.487 161.152,124.654 163.5,125C 160.999,126.418 161.332,127.418 164.5,128C 163.354,128.645 162.354,129.478 161.5,130.5C 160.935,128.49 159.935,126.824 158.5,125.5C 158.446,126.687 158.113,128.02 157.5,129.5C 156.391,128.41 155.391,128.41 154.5,129.5C 156.709,130.063 158.209,131.396 159,133.5C 159.414,133.043 159.914,132.709 160.5,132.5C 162.078,133.64 163.744,134.14 165.5,134C 163.993,133.163 163.493,131.996 164,130.5C 166.362,131.352 168.195,132.852 169.5,135C 168.376,135.249 167.376,135.749 166.5,136.5C 169.152,137.475 171.486,138.808 173.5,140.5C 171.863,141.218 170.197,141.384 168.5,141C 166.324,139.323 164.324,137.489 162.5,135.5C 162.167,135.667 161.833,135.833 161.5,136C 162.728,138.14 164.395,139.807 166.5,141C 165.5,141.667 164.5,141.667 163.5,141C 161.61,139.109 160.11,136.942 159,134.5C 158.923,138.948 161.089,141.948 165.5,143.5C 164.167,144.167 162.833,144.833 161.5,145.5C 162.274,146.711 163.107,146.711 164,145.5C 164.617,146.449 164.451,147.282 163.5,148C 164.448,148.483 165.448,148.649 166.5,148.5C 166.833,146.5 167.167,144.5 167.5,142.5C 173.51,142.225 173.843,143.058 168.5,145C 170.515,146.555 170.848,148.389 169.5,150.5C 167.185,150.314 164.851,149.98 162.5,149.5C 161.252,147.541 159.585,146.041 157.5,145C 158.308,144.692 158.975,144.192 159.5,143.5C 156.906,140.901 155.406,141.234 155,144.5C 153.175,143.897 151.341,143.23 149.5,142.5C 150.98,141.887 152.313,141.554 153.5,141.5C 151.386,137.765 149.386,134.098 147.5,130.5C 147.551,128.9 147.884,127.4 148.5,126C 147.692,125.692 147.025,125.192 146.5,124.5C 147.833,123.833 149.167,123.167 150.5,122.5C 149.388,121.735 148.721,120.735 148.5,119.5 Z"/></g>
<g><path style="opacity:1" fill="#b6da85" d="M 148.5,119.5 C 148.721,120.735 149.388,121.735 150.5,122.5C 149.167,123.167 147.833,123.833 146.5,124.5C 147.025,125.192 147.692,125.692 148.5,126C 147.884,127.4 147.551,128.9 147.5,130.5C 149.386,134.098 151.386,137.765 153.5,141.5C 152.313,141.554 150.98,141.887 149.5,142.5C 151.341,143.23 153.175,143.897 155,144.5C 155.406,141.234 156.906,140.901 159.5,143.5C 158.975,144.192 158.308,144.692 157.5,145C 159.585,146.041 161.252,147.541 162.5,149.5C 164.851,149.98 167.185,150.314 169.5,150.5C 170.848,148.389 170.515,146.555 168.5,145C 173.843,143.058 173.51,142.225 167.5,142.5C 167.167,144.5 166.833,146.5 166.5,148.5C 165.448,148.649 164.448,148.483 163.5,148C 164.451,147.282 164.617,146.449 164,145.5C 163.107,146.711 162.274,146.711 161.5,145.5C 162.833,144.833 164.167,144.167 165.5,143.5C 161.089,141.948 158.923,138.948 159,134.5C 160.11,136.942 161.61,139.109 163.5,141C 164.5,141.667 165.5,141.667 166.5,141C 164.395,139.807 162.728,138.14 161.5,136C 161.833,135.833 162.167,135.667 162.5,135.5C 164.324,137.489 166.324,139.323 168.5,141C 170.197,141.384 171.863,141.218 173.5,140.5C 173.665,142.827 174.331,144.993 175.5,147C 176.483,147.591 177.15,147.257 177.5,146C 176.548,144.7 176.548,143.533 177.5,142.5C 178.386,143.325 178.719,144.325 178.5,145.5C 180.144,145.714 181.644,145.38 183,144.5C 183.333,145.167 183.667,145.833 184,146.5C 185.906,146.438 187.74,146.438 189.5,146.5C 187.136,143.911 184.636,141.578 182,139.5C 180.723,135.903 180.39,132.236 181,128.5C 181.14,131.043 181.806,133.377 183,135.5C 184.377,131.735 185.377,132.068 186,136.5C 186.667,135.833 187.333,135.167 188,134.5C 188.273,136.101 188.773,137.601 189.5,139C 187.801,139.393 186.301,138.893 185,137.5C 183.743,137.85 183.409,138.517 184,139.5C 185.356,140.38 186.856,140.714 188.5,140.5C 188.5,141.5 188.5,142.5 188.5,143.5C 190.799,144.138 192.966,145.138 195,146.5C 195.333,145.5 195.667,144.5 196,143.5C 196.697,146.573 198.53,148.573 201.5,149.5C 202.462,147.117 201.462,146.117 198.5,146.5C 198.649,145.448 198.483,144.448 198,143.5C 195.717,140.986 193.217,138.82 190.5,137C 191.451,136.282 191.617,135.449 191,134.5C 189.155,133.95 187.655,132.95 186.5,131.5C 188.277,130.099 189.944,128.599 191.5,127C 189.993,126.163 189.493,124.996 190,123.5C 191.353,124.685 192.52,126.019 193.5,127.5C 193.5,125.833 193.5,124.167 193.5,122.5C 194.88,123.976 196.547,124.976 198.5,125.5C 199.463,125.03 199.463,124.363 198.5,123.5C 200.482,123.995 202.482,124.495 204.5,125C 203.692,125.308 203.025,125.808 202.5,126.5C 203.747,128.497 204.581,130.497 205,132.5C 203.471,131.271 202.304,129.771 201.5,128C 199.833,127.333 198.167,127.333 196.5,128C 198.589,129.171 200.589,130.504 202.5,132C 201.207,132.49 199.873,132.657 198.5,132.5C 198.773,134.451 198.107,135.951 196.5,137C 197.328,137.915 198.328,138.581 199.5,139C 198.692,139.308 198.025,139.808 197.5,140.5C 199.976,141.809 201.976,143.642 203.5,146C 204.5,146.667 205.5,146.667 206.5,146C 205.072,143.815 203.405,141.815 201.5,140C 206.594,138.542 206.261,137.709 200.5,137.5C 200.351,136.448 200.517,135.448 201,134.5C 203.552,135.193 205.719,136.527 207.5,138.5C 207.998,137.397 208.331,136.397 208.5,135.5C 209.823,138.982 208.49,140.815 204.5,141C 206.766,142.514 207.932,144.681 208,147.5C 208.402,146.128 208.902,144.795 209.5,143.5C 208.391,141.786 209.058,141.119 211.5,141.5C 210.874,145.195 211.874,146.029 214.5,144C 213.483,142.951 213.316,141.784 214,140.5C 214.377,141.942 215.21,142.942 216.5,143.5C 212.948,150.605 209.948,157.938 207.5,165.5C 208.164,169.325 209.331,172.992 211,176.5C 212.075,180.77 212.575,185.103 212.5,189.5C 211.408,191.804 210.741,194.804 210.5,198.5C 211.675,198.281 212.675,198.614 213.5,199.5C 214.506,200.396 214.506,201.062 213.5,201.5C 210.297,200.408 208.297,198.241 207.5,195C 205.447,193.798 203.447,193.464 201.5,194C 200.848,191.91 200.681,189.743 201,187.5C 199.989,186.663 198.822,186.33 197.5,186.5C 197.25,183.786 197.083,181.119 197,178.5C 198.113,180.329 199.613,181.163 201.5,181C 198.584,178.657 196.418,175.823 195,172.5C 194.617,173.056 194.117,173.389 193.5,173.5C 192.434,172.308 191.601,172.641 191,174.5C 187.668,172.557 187.834,171.39 191.5,171C 190.601,169.764 189.434,168.93 188,168.5C 187.53,173.279 185.53,173.612 182,169.5C 181.835,171.678 182.668,173.511 184.5,175C 183.552,175.483 182.552,175.649 181.5,175.5C 180.761,175.369 180.094,175.536 179.5,176C 179.941,178.941 181.607,180.774 184.5,181.5C 182.997,182.052 181.331,182.052 179.5,181.5C 177.435,181.483 175.435,181.15 173.5,180.5C 172.834,183.183 174.168,184.516 177.5,184.5C 177.649,185.552 177.483,186.552 177,187.5C 175.796,186.141 174.296,185.141 172.5,184.5C 171.05,183.15 170.383,181.484 170.5,179.5C 171.873,179.657 173.207,179.49 174.5,179C 173.62,177.644 173.286,176.144 173.5,174.5C 173.369,173.761 173.536,173.094 174,172.5C 176.384,174.228 178.884,174.561 181.5,173.5C 180.5,171.833 179.167,170.5 177.5,169.5C 177.089,170.262 176.923,171.262 177,172.5C 175.959,169.887 174.459,167.554 172.5,165.5C 173.098,164.205 173.598,162.872 174,161.5C 174.941,163.061 176.108,164.395 177.5,165.5C 178.293,164.645 177.96,163.811 176.5,163C 177.793,162.51 179.127,162.343 180.5,162.5C 180.657,161.127 180.49,159.793 180,158.5C 179.481,159.516 178.647,160.182 177.5,160.5C 175.865,159.954 174.199,159.62 172.5,159.5C 172.5,158.5 172.5,157.5 172.5,156.5C 176.267,156.867 179.933,157.367 183.5,158C 182,156.5 180.5,155 179,153.5C 176.894,155.291 174.394,155.958 171.5,155.5C 171.5,154.5 171.5,153.5 171.5,152.5C 169.774,152.185 168.107,152.019 166.5,152C 168.304,153.542 169.971,155.209 171.5,157C 170.667,157.167 169.833,157.333 169,157.5C 166.412,156.432 163.912,155.099 161.5,153.5C 160.41,152.609 160.41,151.609 161.5,150.5C 159.253,149.755 157.42,148.422 156,146.5C 156.027,148.417 156.861,150.084 158.5,151.5C 158.154,152.696 157.654,152.696 157,151.5C 156.667,152.5 156.333,153.5 156,154.5C 154.374,152.536 152.541,150.869 150.5,149.5C 149.027,147.228 146.86,145.895 144,145.5C 142.939,140.896 142.273,136.229 142,131.5C 139.833,129.333 137.667,127.167 135.5,125C 140.171,123.836 144.504,122.003 148.5,119.5 Z"/></g>
<g><path style="opacity:1" fill="#b8db88" d="M 173.5,174.5 C 171.896,173.713 171.229,172.38 171.5,170.5C 170.5,170.5 169.5,170.5 168.5,170.5C 168.281,169.325 168.614,168.325 169.5,167.5C 170.451,168.326 171.451,168.492 172.5,168C 170.939,167.059 169.605,165.892 168.5,164.5C 171.015,163.8 171.682,162.467 170.5,160.5C 166.91,158.907 163.577,156.907 160.5,154.5C 159.966,155.852 160.466,157.185 162,158.5C 162.895,162.21 163.895,165.877 165,169.5C 165.374,168.584 165.874,167.75 166.5,167C 164.025,165.257 164.025,164.257 166.5,164C 167.311,166.72 167.311,169.22 166.5,171.5C 166.938,172.506 167.604,172.506 168.5,171.5C 169.711,173.422 171.044,175.255 172.5,177C 170.271,177.041 168.271,176.208 166.5,174.5C 164.575,171.883 162.742,169.216 161,166.5C 158.878,167.22 158.378,168.387 159.5,170C 158.5,170.333 157.5,170.667 156.5,171C 160.545,175.648 162.045,174.815 161,168.5C 163.293,170.848 163.46,173.015 161.5,175C 163.5,175.667 165.5,176.333 167.5,177C 167.833,177.333 168.167,177.667 168.5,178C 164.551,178.807 164.551,179.307 168.5,179.5C 169.049,181.901 169.882,184.235 171,186.5C 172.008,186.982 173.175,187.148 174.5,187C 175.451,187.718 175.617,188.551 175,189.5C 172.133,189.065 169.633,187.899 167.5,186C 168.451,185.282 168.617,184.449 168,183.5C 165.901,182.534 164.068,181.2 162.5,179.5C 161.808,180.025 161.308,180.692 161,181.5C 160.667,180.167 160.333,178.833 160,177.5C 159.13,178.108 158.63,178.941 158.5,180C 159.833,182 159.833,184 158.5,186C 158.833,186.5 159.167,187 159.5,187.5C 159.849,183.58 161.182,182.914 163.5,185.5C 162.833,186.167 162.167,186.833 161.5,187.5C 164.522,188.004 165.689,189.671 165,192.5C 162.56,189.84 159.726,188.84 156.5,189.5C 156.288,187.616 155.288,186.283 153.5,185.5C 153.833,184.833 154.167,184.167 154.5,183.5C 153.066,182.77 151.9,181.77 151,180.5C 150.884,182.655 151.217,184.655 152,186.5C 147.573,183.435 147.407,180.102 151.5,176.5C 156.561,178.704 156.727,178.037 152,174.5C 151.586,174.957 151.086,175.291 150.5,175.5C 149.374,174.192 149.374,172.858 150.5,171.5C 151.873,171.657 153.207,171.49 154.5,171C 152.622,169.457 151.122,167.624 150,165.5C 149.685,160.162 149.852,154.828 150.5,149.5C 152.541,150.869 154.374,152.536 156,154.5C 156.333,153.5 156.667,152.5 157,151.5C 157.654,152.696 158.154,152.696 158.5,151.5C 156.861,150.084 156.027,148.417 156,146.5C 157.42,148.422 159.253,149.755 161.5,150.5C 160.41,151.609 160.41,152.609 161.5,153.5C 163.912,155.099 166.412,156.432 169,157.5C 169.833,157.333 170.667,157.167 171.5,157C 169.971,155.209 168.304,153.542 166.5,152C 168.107,152.019 169.774,152.185 171.5,152.5C 171.5,153.5 171.5,154.5 171.5,155.5C 174.394,155.958 176.894,155.291 179,153.5C 180.5,155 182,156.5 183.5,158C 179.933,157.367 176.267,156.867 172.5,156.5C 172.5,157.5 172.5,158.5 172.5,159.5C 174.199,159.62 175.865,159.954 177.5,160.5C 178.647,160.182 179.481,159.516 180,158.5C 180.49,159.793 180.657,161.127 180.5,162.5C 179.127,162.343 177.793,162.51 176.5,163C 177.96,163.811 178.293,164.645 177.5,165.5C 176.108,164.395 174.941,163.061 174,161.5C 173.598,162.872 173.098,164.205 172.5,165.5C 174.459,167.554 175.959,169.887 177,172.5C 176.923,171.262 177.089,170.262 177.5,169.5C 179.167,170.5 180.5,171.833 181.5,173.5C 178.884,174.561 176.384,174.228 174,172.5C 173.536,173.094 173.369,173.761 173.5,174.5 Z"/></g>
<g><path style="opacity:1" fill="#bbdd8c" d="M 193.5,173.5 C 192.903,173.735 192.57,174.235 192.5,175C 193.711,178.077 195.044,181.077 196.5,184C 195.451,184.492 194.451,184.326 193.5,183.5C 192.172,180.176 190.339,177.176 188,174.5C 188.311,175.935 188.145,177.268 187.5,178.5C 188.167,179.167 188.833,179.833 189.5,180.5C 188.833,180.833 188.167,181.167 187.5,181.5C 189.954,185.057 193.287,187.057 197.5,187.5C 197.48,189.143 198.147,190.476 199.5,191.5C 198.897,192.635 198.564,193.635 198.5,194.5C 197.594,192.614 196.594,190.78 195.5,189C 194.833,188.333 194.167,188.333 193.5,189C 194.711,189.893 194.711,190.726 193.5,191.5C 192.813,189.726 191.98,188.059 191,186.5C 189.388,186.952 188.388,188.285 188,190.5C 186.868,188.661 186.035,186.661 185.5,184.5C 186.101,182.275 186.434,180.109 186.5,178C 184.825,177.015 183.158,176.181 181.5,175.5C 182.552,175.649 183.552,175.483 184.5,175C 182.668,173.511 181.835,171.678 182,169.5C 185.53,173.612 187.53,173.279 188,168.5C 189.434,168.93 190.601,169.764 191.5,171C 187.834,171.39 187.668,172.557 191,174.5C 191.601,172.641 192.434,172.308 193.5,173.5 Z"/></g>
<g><path style="opacity:1" fill="#b4d982" d="M 150.5,171.5 C 149.374,172.858 149.374,174.192 150.5,175.5C 151.086,175.291 151.586,174.957 152,174.5C 156.727,178.037 156.561,178.704 151.5,176.5C 147.407,180.102 147.573,183.435 152,186.5C 151.217,184.655 150.884,182.655 151,180.5C 151.9,181.77 153.066,182.77 154.5,183.5C 154.167,184.167 153.833,184.833 153.5,185.5C 155.288,186.283 156.288,187.616 156.5,189.5C 153.442,186.986 152.775,187.82 154.5,192C 154.15,193.257 153.483,193.591 152.5,193C 149.965,189.968 147.632,186.801 145.5,183.5C 144.289,184.274 144.289,185.107 145.5,186C 144.451,186.492 143.451,186.326 142.5,185.5C 141.369,187.074 141.202,188.741 142,190.5C 143.197,188.117 144.03,188.45 144.5,191.5C 144.281,192.938 143.781,194.271 143,195.5C 141.312,194.675 141.145,193.675 142.5,192.5C 139.907,190.929 138.907,188.596 139.5,185.5C 137.167,185.5 134.833,185.5 132.5,185.5C 134.292,184.691 136.292,184.191 138.5,184C 135.575,180.304 135.908,176.971 139.5,174C 143.031,172.594 146.698,171.76 150.5,171.5 Z"/></g>
<g><path style="opacity:1" fill="#b3d980" d="M 212.5,189.5 C 215.566,195.348 217.9,201.682 219.5,208.5C 218.92,213.178 217.586,217.512 215.5,221.5C 214.517,219.709 213.184,218.209 211.5,217C 212.025,216.308 212.692,215.808 213.5,215.5C 214.451,216.326 215.451,216.492 216.5,216C 214.38,214.477 214.047,212.644 215.5,210.5C 214.5,209.833 213.5,209.167 212.5,208.5C 212.846,207.304 213.346,207.304 214,208.5C 214.309,207.234 214.809,206.067 215.5,205C 212.739,202.779 209.739,201.446 206.5,201C 208.455,201.953 210.122,203.287 211.5,205C 208.974,204.368 206.474,204.535 204,205.5C 203.667,202.5 203.333,199.5 203,196.5C 202.282,195.549 201.449,195.383 200.5,196C 201.76,197.814 201.76,199.647 200.5,201.5C 197.674,199.429 195.341,196.929 193.5,194C 187.12,193.408 183.786,189.908 183.5,183.5C 181.62,183.771 180.287,183.104 179.5,181.5C 181.331,182.052 182.997,182.052 184.5,181.5C 181.607,180.774 179.941,178.941 179.5,176C 180.094,175.536 180.761,175.369 181.5,175.5C 183.158,176.181 184.825,177.015 186.5,178C 186.434,180.109 186.101,182.275 185.5,184.5C 186.035,186.661 186.868,188.661 188,190.5C 188.388,188.285 189.388,186.952 191,186.5C 191.98,188.059 192.813,189.726 193.5,191.5C 194.711,190.726 194.711,189.893 193.5,189C 194.167,188.333 194.833,188.333 195.5,189C 196.594,190.78 197.594,192.614 198.5,194.5C 198.564,193.635 198.897,192.635 199.5,191.5C 198.147,190.476 197.48,189.143 197.5,187.5C 193.287,187.057 189.954,185.057 187.5,181.5C 188.167,181.167 188.833,180.833 189.5,180.5C 188.833,179.833 188.167,179.167 187.5,178.5C 188.145,177.268 188.311,175.935 188,174.5C 190.339,177.176 192.172,180.176 193.5,183.5C 194.451,184.326 195.451,184.492 196.5,184C 195.044,181.077 193.711,178.077 192.5,175C 192.57,174.235 192.903,173.735 193.5,173.5C 194.117,173.389 194.617,173.056 195,172.5C 196.418,175.823 198.584,178.657 201.5,181C 199.613,181.163 198.113,180.329 197,178.5C 197.083,181.119 197.25,183.786 197.5,186.5C 198.822,186.33 199.989,186.663 201,187.5C 200.681,189.743 200.848,191.91 201.5,194C 203.447,193.464 205.447,193.798 207.5,195C 208.297,198.241 210.297,200.408 213.5,201.5C 214.506,201.062 214.506,200.396 213.5,199.5C 212.675,198.614 211.675,198.281 210.5,198.5C 210.741,194.804 211.408,191.804 212.5,189.5 Z"/></g>
<g><path style="opacity:1" fill="#b4da82" d="M 173.5,174.5 C 173.286,176.144 173.62,177.644 174.5,179C 173.207,179.49 171.873,179.657 170.5,179.5C 170.383,181.484 171.05,183.15 172.5,184.5C 174.296,185.141 175.796,186.141 177,187.5C 177.483,186.552 177.649,185.552 177.5,184.5C 174.168,184.516 172.834,183.183 173.5,180.5C 175.827,181.859 178.16,183.359 180.5,185C 178.699,185.317 178.366,185.984 179.5,187C 184.39,188.095 184.39,188.762 179.5,189C 181.872,190.471 181.872,191.637 179.5,192.5C 177.945,192.278 176.611,191.611 175.5,190.5C 174.808,191.025 174.308,191.692 174,192.5C 170.129,188.306 168.463,188.973 169,194.5C 166.67,191.818 166.17,192.151 167.5,195.5C 166.833,195.833 166.167,196.167 165.5,196.5C 166.5,197.833 167.5,199.167 168.5,200.5C 166.761,203 165.095,202.833 163.5,200C 163.645,199.228 163.978,198.561 164.5,198C 163.333,196.5 162.167,195 161,193.5C 159.573,195.705 159.073,197.872 159.5,200C 161.569,200.324 161.902,201.158 160.5,202.5C 161.833,203.167 163.167,203.833 164.5,204.5C 162.587,205.051 160.587,205.218 158.5,205C 160.303,205.637 161.636,206.803 162.5,208.5C 165.795,205.552 168.629,205.886 171,209.5C 172.762,209.056 172.595,208.556 170.5,208C 171.833,207.333 171.833,206.667 170.5,206C 168.744,205.798 167.078,205.298 165.5,204.5C 166.776,203.355 168.109,203.355 169.5,204.5C 171.264,201.823 172.43,202.156 173,205.5C 173.585,203.871 174.419,202.371 175.5,201C 174.576,199.189 173.743,199.355 173,201.5C 172.363,199.697 171.197,198.364 169.5,197.5C 170.934,196.77 172.1,195.77 173,194.5C 176.092,199.97 177.092,199.637 176,193.5C 176.833,195 178,196.167 179.5,197C 183.599,196.879 186.599,198.545 188.5,202C 188.167,202.5 187.833,203 187.5,203.5C 185.975,200.247 183.642,198.913 180.5,199.5C 183.028,200.816 183.028,201.983 180.5,203C 181.716,204.74 183.382,205.74 185.5,206C 184.051,207.117 182.384,207.784 180.5,208C 181.416,208.374 182.25,208.874 183,209.5C 183.375,212 184.208,214.333 185.5,216.5C 185.167,216.833 184.833,217.167 184.5,217.5C 183.868,215.263 182.535,213.597 180.5,212.5C 180.167,212.833 179.833,213.167 179.5,213.5C 180.5,214.333 181.5,215.167 182.5,216C 181.809,217.067 181.309,218.234 181,219.5C 179.484,216.949 178.651,217.282 178.5,220.5C 176.549,220.773 175.049,220.107 174,218.5C 173.25,219.126 172.416,219.626 171.5,220C 173.749,221.724 176.083,222.89 178.5,223.5C 177.833,223.833 177.167,224.167 176.5,224.5C 179.167,225.833 179.167,227.167 176.5,228.5C 177.735,231.085 179.402,233.252 181.5,235C 181.167,235.5 180.833,236 180.5,236.5C 179.646,235.478 178.646,234.645 177.5,234C 175.439,230.57 173.105,227.404 170.5,224.5C 171.025,223.808 171.692,223.308 172.5,223C 170.071,219.959 169.071,216.459 169.5,212.5C 170.552,212.649 171.552,212.483 172.5,212C 171.234,211.691 170.067,211.191 169,210.5C 167.89,212.397 167.724,214.23 168.5,216C 167.5,216.333 166.5,216.667 165.5,217C 169.236,218.507 169.236,219.34 165.5,219.5C 165.167,222.5 166.5,223.833 169.5,223.5C 169.859,227.722 171.859,230.889 175.5,233C 174.906,233.464 174.239,233.631 173.5,233.5C 171.486,231.808 169.152,230.475 166.5,229.5C 167.376,228.749 168.376,228.249 169.5,228C 168.195,225.852 166.362,224.352 164,223.5C 163.493,224.996 163.993,226.163 165.5,227C 163.744,227.14 162.078,226.64 160.5,225.5C 159.914,225.709 159.414,226.043 159,226.5C 158.209,224.396 156.709,223.063 154.5,222.5C 155.391,221.41 156.391,221.41 157.5,222.5C 158.113,221.02 158.446,219.687 158.5,218.5C 159.935,219.824 160.935,221.49 161.5,223.5C 162.354,222.478 163.354,221.645 164.5,221C 161.332,220.418 160.999,219.418 163.5,218C 161.152,217.654 159.319,216.487 158,214.5C 156.113,216.062 155.28,217.729 155.5,219.5C 151.003,215.452 151.67,213.285 157.5,213C 155.015,211.513 152.848,209.679 151,207.5C 150.626,208.416 150.126,209.25 149.5,210C 150.624,210.249 151.624,210.749 152.5,211.5C 150.955,212.452 149.288,212.785 147.5,212.5C 147.66,210.801 147.494,209.134 147,207.5C 146.647,209.074 145.98,210.741 145,212.5C 144.363,209.893 143.196,207.56 141.5,205.5C 142.167,205.167 142.833,204.833 143.5,204.5C 145.155,205.388 146.822,205.888 148.5,206C 146.679,203.863 144.346,203.03 141.5,203.5C 141.201,201.396 141.534,199.396 142.5,197.5C 145.167,198.5 145.167,199.5 142.5,200.5C 144.316,201.942 146.316,202.442 148.5,202C 147.289,201.107 147.289,200.274 148.5,199.5C 148.809,203.369 150.809,205.369 154.5,205.5C 155.117,209.422 155.784,209.422 156.5,205.5C 155.616,202.79 154.616,200.124 153.5,197.5C 152.692,199.423 152.192,201.423 152,203.5C 151.749,201.567 151.249,199.734 150.5,198C 148.423,197.808 146.423,197.308 144.5,196.5C 145.729,195.719 147.062,195.219 148.5,195C 147.304,194.346 147.304,193.846 148.5,193.5C 149.719,194.263 150.719,195.263 151.5,196.5C 152.192,195.975 152.692,195.308 153,194.5C 154.097,196.053 155.43,197.386 157,198.5C 157.695,196.278 158.528,194.111 159.5,192C 159.167,191.5 158.833,191 158.5,190.5C 158.167,191.167 157.833,191.833 157.5,192.5C 156.614,191.675 156.281,190.675 156.5,189.5C 159.726,188.84 162.56,189.84 165,192.5C 165.689,189.671 164.522,188.004 161.5,187.5C 162.167,186.833 162.833,186.167 163.5,185.5C 161.182,182.914 159.849,183.58 159.5,187.5C 159.167,187 158.833,186.5 158.5,186C 159.833,184 159.833,182 158.5,180C 158.63,178.941 159.13,178.108 160,177.5C 160.333,178.833 160.667,180.167 161,181.5C 161.308,180.692 161.808,180.025 162.5,179.5C 164.068,181.2 165.901,182.534 168,183.5C 168.617,184.449 168.451,185.282 167.5,186C 169.633,187.899 172.133,189.065 175,189.5C 175.617,188.551 175.451,187.718 174.5,187C 173.175,187.148 172.008,186.982 171,186.5C 169.882,184.235 169.049,181.901 168.5,179.5C 164.551,179.307 164.551,178.807 168.5,178C 168.167,177.667 167.833,177.333 167.5,177C 165.5,176.333 163.5,175.667 161.5,175C 163.46,173.015 163.293,170.848 161,168.5C 162.045,174.815 160.545,175.648 156.5,171C 157.5,170.667 158.5,170.333 159.5,170C 158.378,168.387 158.878,167.22 161,166.5C 162.742,169.216 164.575,171.883 166.5,174.5C 168.271,176.208 170.271,177.041 172.5,177C 171.044,175.255 169.711,173.422 168.5,171.5C 167.604,172.506 166.938,172.506 166.5,171.5C 167.311,169.22 167.311,166.72 166.5,164C 164.025,164.257 164.025,165.257 166.5,167C 165.874,167.75 165.374,168.584 165,169.5C 163.895,165.877 162.895,162.21 162,158.5C 160.466,157.185 159.966,155.852 160.5,154.5C 163.577,156.907 166.91,158.907 170.5,160.5C 171.682,162.467 171.015,163.8 168.5,164.5C 169.605,165.892 170.939,167.059 172.5,168C 171.451,168.492 170.451,168.326 169.5,167.5C 168.614,168.325 168.281,169.325 168.5,170.5C 169.5,170.5 170.5,170.5 171.5,170.5C 171.229,172.38 171.896,173.713 173.5,174.5 Z"/></g>
<g><path style="opacity:1" fill="#b9dc8a" d="M 156.5,189.5 C 156.281,190.675 156.614,191.675 157.5,192.5C 157.833,191.833 158.167,191.167 158.5,190.5C 158.833,191 159.167,191.5 159.5,192C 158.528,194.111 157.695,196.278 157,198.5C 155.43,197.386 154.097,196.053 153,194.5C 152.692,195.308 152.192,195.975 151.5,196.5C 150.719,195.263 149.719,194.263 148.5,193.5C 147.304,193.846 147.304,194.346 148.5,195C 147.062,195.219 145.729,195.719 144.5,196.5C 146.423,197.308 148.423,197.808 150.5,198C 151.249,199.734 151.749,201.567 152,203.5C 152.192,201.423 152.692,199.423 153.5,197.5C 154.616,200.124 155.616,202.79 156.5,205.5C 155.784,209.422 155.117,209.422 154.5,205.5C 150.809,205.369 148.809,203.369 148.5,199.5C 147.289,200.274 147.289,201.107 148.5,202C 146.316,202.442 144.316,201.942 142.5,200.5C 145.167,199.5 145.167,198.5 142.5,197.5C 141.534,199.396 141.201,201.396 141.5,203.5C 144.346,203.03 146.679,203.863 148.5,206C 146.822,205.888 145.155,205.388 143.5,204.5C 142.833,204.833 142.167,205.167 141.5,205.5C 143.196,207.56 144.363,209.893 145,212.5C 145.98,210.741 146.647,209.074 147,207.5C 147.494,209.134 147.66,210.801 147.5,212.5C 149.288,212.785 150.955,212.452 152.5,211.5C 151.624,210.749 150.624,210.249 149.5,210C 150.126,209.25 150.626,208.416 151,207.5C 152.848,209.679 155.015,211.513 157.5,213C 151.67,213.285 151.003,215.452 155.5,219.5C 155.28,217.729 156.113,216.062 158,214.5C 159.319,216.487 161.152,217.654 163.5,218C 160.999,219.418 161.332,220.418 164.5,221C 163.354,221.645 162.354,222.478 161.5,223.5C 160.935,221.49 159.935,219.824 158.5,218.5C 158.446,219.687 158.113,221.02 157.5,222.5C 156.391,221.41 155.391,221.41 154.5,222.5C 156.709,223.063 158.209,224.396 159,226.5C 159.414,226.043 159.914,225.709 160.5,225.5C 162.078,226.64 163.744,227.14 165.5,227C 163.993,226.163 163.493,224.996 164,223.5C 166.362,224.352 168.195,225.852 169.5,228C 168.376,228.249 167.376,228.749 166.5,229.5C 169.152,230.475 171.486,231.808 173.5,233.5C 171.863,234.218 170.197,234.384 168.5,234C 166.324,232.323 164.324,230.489 162.5,228.5C 162.167,228.667 161.833,228.833 161.5,229C 162.728,231.14 164.395,232.807 166.5,234C 165.5,234.667 164.5,234.667 163.5,234C 161.61,232.109 160.11,229.942 159,227.5C 158.923,231.948 161.089,234.948 165.5,236.5C 164.167,237.167 162.833,237.833 161.5,238.5C 162.274,239.711 163.107,239.711 164,238.5C 164.617,239.449 164.451,240.282 163.5,241C 164.448,241.483 165.448,241.649 166.5,241.5C 166.833,239.5 167.167,237.5 167.5,235.5C 173.51,235.225 173.843,236.058 168.5,238C 170.515,239.555 170.848,241.389 169.5,243.5C 167.185,243.314 164.851,242.98 162.5,242.5C 161.252,240.541 159.585,239.041 157.5,238C 158.308,237.692 158.975,237.192 159.5,236.5C 156.906,233.901 155.406,234.234 155,237.5C 153.175,236.897 151.341,236.23 149.5,235.5C 150.98,234.887 152.313,234.554 153.5,234.5C 152.557,231.6 150.89,229.267 148.5,227.5C 147.217,224.628 147.217,221.795 148.5,219C 147.692,218.692 147.025,218.192 146.5,217.5C 147.833,216.833 149.167,216.167 150.5,215.5C 147.286,214.956 144.286,213.956 141.5,212.5C 140.325,213.855 139.325,213.688 138.5,212C 139.167,211.667 139.833,211.333 140.5,211C 138.083,209.856 137.416,208.19 138.5,206C 135.628,203.478 135.962,201.645 139.5,200.5C 138.833,199.833 138.167,199.167 137.5,198.5C 138.485,196.902 138.651,195.235 138,193.5C 137.174,195.405 136.007,195.739 134.5,194.5C 136.058,192.595 135.725,191.761 133.5,192C 132.62,193.356 132.286,194.856 132.5,196.5C 136.536,196.572 137.37,198.239 135,201.5C 134.517,200.552 134.351,199.552 134.5,198.5C 133.5,198.5 132.5,198.5 131.5,198.5C 131.795,196.265 131.461,194.265 130.5,192.5C 130.338,190.473 130.505,188.473 131,186.5C 131.383,185.944 131.883,185.611 132.5,185.5C 134.833,185.5 137.167,185.5 139.5,185.5C 138.907,188.596 139.907,190.929 142.5,192.5C 141.145,193.675 141.312,194.675 143,195.5C 143.781,194.271 144.281,192.938 144.5,191.5C 144.03,188.45 143.197,188.117 142,190.5C 141.202,188.741 141.369,187.074 142.5,185.5C 143.451,186.326 144.451,186.492 145.5,186C 144.289,185.107 144.289,184.274 145.5,183.5C 147.632,186.801 149.965,189.968 152.5,193C 153.483,193.591 154.15,193.257 154.5,192C 152.775,187.82 153.442,186.986 156.5,189.5 Z"/></g>
<g><path style="opacity:1" fill="#b3d980" d="M 173.5,233.5 C 173.544,236.316 174.544,238.649 176.5,240.5C 176.833,240 177.167,239.5 177.5,239C 176.548,237.7 176.548,236.533 177.5,235.5C 178.386,236.325 178.719,237.325 178.5,238.5C 180.144,238.714 181.644,238.38 183,237.5C 183.464,238.094 183.631,238.761 183.5,239.5C 184.292,240.967 184.292,242.3 183.5,243.5C 182.561,241.947 181.394,240.613 180,239.5C 178.079,241.003 175.912,241.669 173.5,241.5C 173.719,240.325 173.386,239.325 172.5,238.5C 172.167,238.833 171.833,239.167 171.5,239.5C 172.468,242.273 173.801,244.773 175.5,247C 172.899,249.498 171.565,248.998 171.5,245.5C 169.774,245.185 168.107,245.019 166.5,245C 168.304,246.542 169.971,248.209 171.5,250C 169.833,250.667 168.167,250.667 166.5,250C 163.146,246.246 159.479,245.08 155.5,246.5C 156.167,246.167 156.833,245.833 157.5,245.5C 156.674,244.549 156.508,243.549 157,242.5C 158.049,243.517 159.216,243.684 160.5,243C 158.714,242.215 157.214,241.049 156,239.5C 155.228,240.849 154.061,241.682 152.5,242C 155.375,242.895 155.708,243.728 153.5,244.5C 151.085,241.92 148.251,239.92 145,238.5C 144.48,236.711 144.813,235.044 146,233.5C 146.684,234.784 146.517,235.951 145.5,237C 146.579,237.956 147.745,238.789 149,239.5C 148.2,236.862 148.367,234.196 149.5,231.5C 148.005,229.83 146.672,227.997 145.5,226C 145.957,225.586 146.291,225.086 146.5,224.5C 145.959,222.465 145.292,220.465 144.5,218.5C 144.448,220.57 144.281,222.903 144,225.5C 143.124,223.275 141.957,221.275 140.5,219.5C 140.574,221.312 140.241,223.312 139.5,225.5C 138.269,224.349 138.269,223.183 139.5,222C 138.939,220.324 137.939,218.991 136.5,218C 138.137,216.049 139.637,216.216 141,218.5C 141.5,218 142,217.5 142.5,217C 138.865,215.264 136.865,212.764 136.5,209.5C 136.192,208.692 135.692,208.025 135,207.5C 133.68,207.799 132.18,207.966 130.5,208C 131.579,208.956 132.745,209.789 134,210.5C 133.743,212.975 132.743,212.975 131,210.5C 130.586,210.957 130.086,211.291 129.5,211.5C 128.742,210.189 127.742,209.689 126.5,210C 127.505,211.507 128.838,212.673 130.5,213.5C 129.624,214.251 128.624,214.751 127.5,215C 128.517,216.049 128.684,217.216 128,218.5C 127.082,216.624 125.582,215.624 123.5,215.5C 124.934,211.7 125.934,207.7 126.5,203.5C 130.152,200.824 131.486,197.158 130.5,192.5C 131.461,194.265 131.795,196.265 131.5,198.5C 132.5,198.5 133.5,198.5 134.5,198.5C 134.351,199.552 134.517,200.552 135,201.5C 137.37,198.239 136.536,196.572 132.5,196.5C 132.286,194.856 132.62,193.356 133.5,192C 135.725,191.761 136.058,192.595 134.5,194.5C 136.007,195.739 137.174,195.405 138,193.5C 138.651,195.235 138.485,196.902 137.5,198.5C 138.167,199.167 138.833,199.833 139.5,200.5C 135.962,201.645 135.628,203.478 138.5,206C 137.416,208.19 138.083,209.856 140.5,211C 139.833,211.333 139.167,211.667 138.5,212C 139.325,213.688 140.325,213.855 141.5,212.5C 144.286,213.956 147.286,214.956 150.5,215.5C 149.167,216.167 147.833,216.833 146.5,217.5C 147.025,218.192 147.692,218.692 148.5,219C 147.217,221.795 147.217,224.628 148.5,227.5C 150.89,229.267 152.557,231.6 153.5,234.5C 152.313,234.554 150.98,234.887 149.5,235.5C 151.341,236.23 153.175,236.897 155,237.5C 155.406,234.234 156.906,233.901 159.5,236.5C 158.975,237.192 158.308,237.692 157.5,238C 159.585,239.041 161.252,240.541 162.5,242.5C 164.851,242.98 167.185,243.314 169.5,243.5C 170.848,241.389 170.515,239.555 168.5,238C 173.843,236.058 173.51,235.225 167.5,235.5C 167.167,237.5 166.833,239.5 166.5,241.5C 165.448,241.649 164.448,241.483 163.5,241C 164.451,240.282 164.617,239.449 164,238.5C 163.107,239.711 162.274,239.711 161.5,238.5C 162.833,237.833 164.167,237.167 165.5,236.5C 161.089,234.948 158.923,231.948 159,227.5C 160.11,229.942 161.61,232.109 163.5,234C 164.5,234.667 165.5,234.667 166.5,234C 164.395,232.807 162.728,231.14 161.5,229C 161.833,228.833 162.167,228.667 162.5,228.5C 164.324,230.489 166.324,232.323 168.5,234C 170.197,234.384 171.863,234.218 173.5,233.5 Z"/></g>
<g><path style="opacity:1" fill="#b8dc89" d="M 173.5,180.5 C 175.435,181.15 177.435,181.483 179.5,181.5C 180.287,183.104 181.62,183.771 183.5,183.5C 183.786,189.908 187.12,193.408 193.5,194C 195.341,196.929 197.674,199.429 200.5,201.5C 201.76,199.647 201.76,197.814 200.5,196C 201.449,195.383 202.282,195.549 203,196.5C 203.333,199.5 203.667,202.5 204,205.5C 206.474,204.535 208.974,204.368 211.5,205C 210.122,203.287 208.455,201.953 206.5,201C 209.739,201.446 212.739,202.779 215.5,205C 214.809,206.067 214.309,207.234 214,208.5C 213.346,207.304 212.846,207.304 212.5,208.5C 213.5,209.167 214.5,209.833 215.5,210.5C 214.047,212.644 214.38,214.477 216.5,216C 215.451,216.492 214.451,216.326 213.5,215.5C 212.692,215.808 212.025,216.308 211.5,217C 213.184,218.209 214.517,219.709 215.5,221.5C 213.997,227.351 212.33,233.185 210.5,239C 210.164,240.03 209.497,240.53 208.5,240.5C 207.961,237.915 206.628,235.748 204.5,234C 208.49,233.815 209.823,231.982 208.5,228.5C 208.331,229.397 207.998,230.397 207.5,231.5C 205.719,229.527 203.552,228.193 201,227.5C 200.517,228.448 200.351,229.448 200.5,230.5C 206.261,230.709 206.594,231.542 201.5,233C 203.405,234.815 205.072,236.815 206.5,239C 205.5,239.667 204.5,239.667 203.5,239C 201.976,236.642 199.976,234.809 197.5,233.5C 198.025,232.808 198.692,232.308 199.5,232C 198.328,231.581 197.328,230.915 196.5,230C 198.107,228.951 198.773,227.451 198.5,225.5C 199.873,225.657 201.207,225.49 202.5,225C 200.589,223.504 198.589,222.171 196.5,221C 198.167,220.333 199.833,220.333 201.5,221C 202.304,222.771 203.471,224.271 205,225.5C 204.581,223.497 203.747,221.497 202.5,219.5C 203.025,218.808 203.692,218.308 204.5,218C 202.782,217.654 201.115,217.154 199.5,216.5C 199.167,217.167 198.833,217.833 198.5,218.5C 196.547,217.976 194.88,216.976 193.5,215.5C 193.167,215.833 192.833,216.167 192.5,216.5C 193.167,217.5 193.833,218.5 194.5,219.5C 194.167,219.833 193.833,220.167 193.5,220.5C 192.52,219.019 191.353,217.685 190,216.5C 189.493,217.996 189.993,219.163 191.5,220C 189.944,221.599 188.277,223.099 186.5,224.5C 187.655,225.95 189.155,226.95 191,227.5C 191.617,228.449 191.451,229.282 190.5,230C 193.217,231.82 195.717,233.986 198,236.5C 198.483,237.448 198.649,238.448 198.5,239.5C 200.38,239.229 201.713,239.896 202.5,241.5C 202.5,242.167 202.167,242.5 201.5,242.5C 198.539,241.607 196.706,239.607 196,236.5C 195.667,237.5 195.333,238.5 195,239.5C 192.966,238.138 190.799,237.138 188.5,236.5C 188.5,235.5 188.5,234.5 188.5,233.5C 186.856,233.714 185.356,233.38 184,232.5C 183.409,231.517 183.743,230.85 185,230.5C 186.301,231.893 187.801,232.393 189.5,232C 188.773,230.601 188.273,229.101 188,227.5C 187.333,228.167 186.667,228.833 186,229.5C 185.377,225.068 184.377,224.735 183,228.5C 181.806,226.377 181.14,224.043 181,221.5C 180.39,225.236 180.723,228.903 182,232.5C 184.636,234.578 187.136,236.911 189.5,239.5C 187.582,239.332 185.582,239.332 183.5,239.5C 183.631,238.761 183.464,238.094 183,237.5C 181.644,238.38 180.144,238.714 178.5,238.5C 178.719,237.325 178.386,236.325 177.5,235.5C 176.548,236.533 176.548,237.7 177.5,239C 177.167,239.5 176.833,240 176.5,240.5C 174.544,238.649 173.544,236.316 173.5,233.5C 174.239,233.631 174.906,233.464 175.5,233C 171.859,230.889 169.859,227.722 169.5,223.5C 166.5,223.833 165.167,222.5 165.5,219.5C 169.236,219.34 169.236,218.507 165.5,217C 166.5,216.667 167.5,216.333 168.5,216C 167.724,214.23 167.89,212.397 169,210.5C 170.067,211.191 171.234,211.691 172.5,212C 171.552,212.483 170.552,212.649 169.5,212.5C 169.071,216.459 170.071,219.959 172.5,223C 171.692,223.308 171.025,223.808 170.5,224.5C 173.105,227.404 175.439,230.57 177.5,234C 178.646,234.645 179.646,235.478 180.5,236.5C 180.833,236 181.167,235.5 181.5,235C 179.402,233.252 177.735,231.085 176.5,228.5C 179.167,227.167 179.167,225.833 176.5,224.5C 177.167,224.167 177.833,223.833 178.5,223.5C 176.083,222.89 173.749,221.724 171.5,220C 172.416,219.626 173.25,219.126 174,218.5C 175.049,220.107 176.549,220.773 178.5,220.5C 178.651,217.282 179.484,216.949 181,219.5C 181.309,218.234 181.809,217.067 182.5,216C 181.5,215.167 180.5,214.333 179.5,213.5C 179.833,213.167 180.167,212.833 180.5,212.5C 182.535,213.597 183.868,215.263 184.5,217.5C 184.833,217.167 185.167,216.833 185.5,216.5C 184.208,214.333 183.375,212 183,209.5C 182.25,208.874 181.416,208.374 180.5,208C 182.384,207.784 184.051,207.117 185.5,206C 183.382,205.74 181.716,204.74 180.5,203C 183.028,201.983 183.028,200.816 180.5,199.5C 183.642,198.913 185.975,200.247 187.5,203.5C 187.833,203 188.167,202.5 188.5,202C 186.599,198.545 183.599,196.879 179.5,197C 178,196.167 176.833,195 176,193.5C 177.092,199.637 176.092,199.97 173,194.5C 172.1,195.77 170.934,196.77 169.5,197.5C 171.197,198.364 172.363,199.697 173,201.5C 173.743,199.355 174.576,199.189 175.5,201C 174.419,202.371 173.585,203.871 173,205.5C 172.43,202.156 171.264,201.823 169.5,204.5C 168.109,203.355 166.776,203.355 165.5,204.5C 167.078,205.298 168.744,205.798 170.5,206C 171.833,206.667 171.833,207.333 170.5,208C 172.595,208.556 172.762,209.056 171,209.5C 168.629,205.886 165.795,205.552 162.5,208.5C 161.636,206.803 160.303,205.637 158.5,205C 160.587,205.218 162.587,205.051 164.5,204.5C 163.167,203.833 161.833,203.167 160.5,202.5C 161.902,201.158 161.569,200.324 159.5,200C 159.073,197.872 159.573,195.705 161,193.5C 162.167,195 163.333,196.5 164.5,198C 163.978,198.561 163.645,199.228 163.5,200C 165.095,202.833 166.761,203 168.5,200.5C 167.5,199.167 166.5,197.833 165.5,196.5C 166.167,196.167 166.833,195.833 167.5,195.5C 166.17,192.151 166.67,191.818 169,194.5C 168.463,188.973 170.129,188.306 174,192.5C 174.308,191.692 174.808,191.025 175.5,190.5C 176.611,191.611 177.945,192.278 179.5,192.5C 181.872,191.637 181.872,190.471 179.5,189C 184.39,188.762 184.39,188.095 179.5,187C 178.366,185.984 178.699,185.317 180.5,185C 178.16,183.359 175.827,181.859 173.5,180.5 Z"/></g>
<g><path style="opacity:1" fill="#b1d87d" d="M 194.5,203.5 C 196.549,203.706 196.883,204.539 195.5,206C 196.448,206.483 197.448,206.649 198.5,206.5C 198.659,209.155 199.659,211.488 201.5,213.5C 204.917,211.674 204.917,209.508 201.5,207C 203.433,206.749 205.266,206.249 207,205.5C 210.054,207.123 209.554,207.79 205.5,207.5C 205.261,209.467 205.594,211.301 206.5,213C 205.833,213.333 205.167,213.667 204.5,214C 205.451,214.718 205.617,215.551 205,216.5C 203.601,215.773 202.101,215.273 200.5,215C 198.127,211.227 196.127,207.393 194.5,203.5 Z"/></g>
<g><path style="opacity:1" fill="#b4da82" d="M 208.5,240.5 C 206.735,241.461 204.735,241.795 202.5,241.5C 201.713,239.896 200.38,239.229 198.5,239.5C 198.649,238.448 198.483,237.448 198,236.5C 195.717,233.986 193.217,231.82 190.5,230C 191.451,229.282 191.617,228.449 191,227.5C 189.155,226.95 187.655,225.95 186.5,224.5C 188.277,223.099 189.944,221.599 191.5,220C 189.993,219.163 189.493,217.996 190,216.5C 191.353,217.685 192.52,219.019 193.5,220.5C 193.833,220.167 194.167,219.833 194.5,219.5C 193.833,218.5 193.167,217.5 192.5,216.5C 192.833,216.167 193.167,215.833 193.5,215.5C 194.88,216.976 196.547,217.976 198.5,218.5C 198.833,217.833 199.167,217.167 199.5,216.5C 201.115,217.154 202.782,217.654 204.5,218C 203.692,218.308 203.025,218.808 202.5,219.5C 203.747,221.497 204.581,223.497 205,225.5C 203.471,224.271 202.304,222.771 201.5,221C 199.833,220.333 198.167,220.333 196.5,221C 198.589,222.171 200.589,223.504 202.5,225C 201.207,225.49 199.873,225.657 198.5,225.5C 198.773,227.451 198.107,228.951 196.5,230C 197.328,230.915 198.328,231.581 199.5,232C 198.692,232.308 198.025,232.808 197.5,233.5C 199.976,234.809 201.976,236.642 203.5,239C 204.5,239.667 205.5,239.667 206.5,239C 205.072,236.815 203.405,234.815 201.5,233C 206.594,231.542 206.261,230.709 200.5,230.5C 200.351,229.448 200.517,228.448 201,227.5C 203.552,228.193 205.719,229.527 207.5,231.5C 207.998,230.397 208.331,229.397 208.5,228.5C 209.823,231.982 208.49,233.815 204.5,234C 206.628,235.748 207.961,237.915 208.5,240.5 Z"/></g>
<g><path style="opacity:1" fill="#b9dc8a" d="M 140.5,261.5 C 139.415,263.587 137.749,264.92 135.5,265.5C 132.813,265.664 130.146,265.497 127.5,265C 125.324,263.323 123.324,261.489 121.5,259.5C 121.167,259.667 120.833,259.833 120.5,260C 121.728,262.14 123.395,263.807 125.5,265C 125,265.167 124.5,265.333 124,265.5C 121.324,263.818 119.324,261.485 118,258.5C 117.667,259.5 117.333,260.5 117,261.5C 115.482,259.386 115.149,257.053 116,254.5C 116.915,255.328 117.581,256.328 118,257.5C 119.881,256.646 121.714,256.979 123.5,258.5C 123.833,258.333 124.167,258.167 124.5,258C 122.993,257.163 122.493,255.996 123,254.5C 125.362,255.352 127.195,256.852 128.5,259C 127.376,259.249 126.376,259.749 125.5,260.5C 128.53,262.002 131.53,263.169 134.5,264C 130.85,261.865 128.85,258.699 128.5,254.5C 127.448,254.649 126.448,254.483 125.5,254C 125.034,251.877 123.867,250.377 122,249.5C 121.5,249.833 121,250.167 120.5,250.5C 121.376,251.251 122.376,251.751 123.5,252C 122.354,252.645 121.354,253.478 120.5,254.5C 119.756,253.009 119.09,251.509 118.5,250C 117.833,249.333 117.167,249.333 116.5,250C 117.731,251.183 117.731,252.349 116.5,253.5C 113.926,252.334 111.759,250.667 110,248.5C 108.759,249.877 108.592,251.21 109.5,252.5C 110.192,251.975 110.692,251.308 111,250.5C 111.837,252.351 112.671,254.184 113.5,256C 112.256,256.456 111.423,255.956 111,254.5C 110.333,255.833 110.333,257.167 111,258.5C 114.11,257.327 114.277,257.827 111.5,260C 114.993,261.088 115.159,262.255 112,263.5C 110.859,261.391 109.359,259.558 107.5,258C 108.059,257.275 108.392,256.442 108.5,255.5C 107.388,252.931 106.055,250.598 104.5,248.5C 104.167,248.667 103.833,248.833 103.5,249C 104.989,252.627 105.489,256.127 105,259.5C 103.069,256.895 101.236,256.895 99.5,259.5C 100.883,262.076 101.717,261.742 102,258.5C 103.188,259.563 103.688,260.897 103.5,262.5C 102.448,262.351 101.448,262.517 100.5,263C 102.255,263.72 103.089,264.887 103,266.5C 99.7933,264.594 96.6267,262.594 93.5,260.5C 93.1667,260.667 92.8333,260.833 92.5,261C 93.5,262 94.5,263 95.5,264C 95.1667,264.167 94.8333,264.333 94.5,264.5C 91.1444,262.351 87.4777,261.351 83.5,261.5C 83.259,258.001 84.0924,257.668 86,260.5C 86.4922,259.451 86.3256,258.451 85.5,257.5C 86.723,256.386 88.0563,256.219 89.5,257C 88.8333,257.333 88.1667,257.667 87.5,258C 88.5786,258.956 89.7453,259.789 91,260.5C 90.9227,259.262 91.0894,258.262 91.5,257.5C 92.2575,258.811 93.2575,259.311 94.5,259C 93.6667,257.5 92.5,256.333 91,255.5C 90.3333,254.5 90.3333,253.5 91,252.5C 93.793,254.779 95.9597,257.446 97.5,260.5C 97.8333,260.167 98.1667,259.833 98.5,259.5C 96.9604,258.468 96.4604,257.135 97,255.5C 98.4865,256.741 99.3199,256.241 99.5,254C 99.4148,252.893 99.0814,251.893 98.5,251C 99.4491,250.383 100.282,250.549 101,251.5C 103.096,258.129 103.763,257.795 103,250.5C 102.378,248.269 101.211,246.435 99.5,245C 101.479,244.316 103.146,244.816 104.5,246.5C 105.532,244.96 106.865,244.46 108.5,245C 110.976,246.309 112.976,248.142 114.5,250.5C 114.28,248.729 115.113,247.062 117,245.5C 118.525,248.087 120.692,248.92 123.5,248C 121.253,246.626 119.087,245.126 117,243.5C 116.228,243.645 115.561,243.978 115,244.5C 114.626,243.584 114.126,242.75 113.5,242C 117.408,238.861 120.075,239.361 121.5,243.5C 122.5,243 123.5,242.5 124.5,242C 122.691,238.867 120.524,236.033 118,233.5C 117.316,234.784 117.483,235.951 118.5,237C 115.874,239.029 114.874,238.195 115.5,234.5C 113.058,234.119 112.391,234.786 113.5,236.5C 112.902,237.795 112.402,239.128 112,240.5C 111.932,237.681 110.766,235.514 108.5,234C 112.825,233.502 114.159,231.336 112.5,227.5C 114.411,227.574 115.578,228.574 116,230.5C 116.36,228.579 117.194,226.912 118.5,225.5C 118.365,226.981 118.699,228.647 119.5,230.5C 118.271,231.281 116.938,231.781 115.5,232C 118.146,232.497 120.813,232.664 123.5,232.5C 123.412,229.477 122.412,226.81 120.5,224.5C 121.723,223.386 123.056,223.219 124.5,224C 124.784,226.623 125.284,229.123 126,231.5C 126.414,231.043 126.914,230.709 127.5,230.5C 129.848,233.148 131.848,235.981 133.5,239C 133.043,239.414 132.709,239.914 132.5,240.5C 133.5,241.167 134.5,241.833 135.5,242.5C 134.397,242.998 133.397,243.331 132.5,243.5C 134.167,244.833 135.833,244.833 137.5,243.5C 136.071,241.669 135.571,239.669 136,237.5C 136.71,238.973 137.876,239.64 139.5,239.5C 139.104,242.044 139.771,244.211 141.5,246C 139.473,245.502 137.473,245.669 135.5,246.5C 137.246,248.854 139.579,249.854 142.5,249.5C 142.48,251.143 143.147,252.476 144.5,253.5C 143.897,254.635 143.564,255.635 143.5,256.5C 142.594,254.614 141.594,252.78 140.5,251C 139.833,250.333 139.167,250.333 138.5,251C 139.711,251.893 139.711,252.726 138.5,253.5C 137.999,250.333 136.333,247.999 133.5,246.5C 132.742,247.811 131.742,248.311 130.5,248C 131.386,246.098 131.053,244.265 129.5,242.5C 129.167,242.833 128.833,243.167 128.5,243.5C 128.342,246.553 128.842,249.553 130,252.5C 133.11,253.673 133.277,253.173 130.5,251C 131.5,250.333 132.5,250.333 133.5,251C 134.667,253.5 136.5,255.333 139,256.5C 139.608,258.154 140.108,259.821 140.5,261.5 Z"/></g>
<g><path style="opacity:1" fill="#b6db86" d="M 183.5,239.5 C 185.582,239.332 187.582,239.332 189.5,239.5C 187.136,236.911 184.636,234.578 182,232.5C 180.723,228.903 180.39,225.236 181,221.5C 181.14,224.043 181.806,226.377 183,228.5C 184.377,224.735 185.377,225.068 186,229.5C 186.667,228.833 187.333,228.167 188,227.5C 188.273,229.101 188.773,230.601 189.5,232C 187.801,232.393 186.301,231.893 185,230.5C 183.743,230.85 183.409,231.517 184,232.5C 185.356,233.38 186.856,233.714 188.5,233.5C 188.5,234.5 188.5,235.5 188.5,236.5C 190.799,237.138 192.966,238.138 195,239.5C 195.333,238.5 195.667,237.5 196,236.5C 196.706,239.607 198.539,241.607 201.5,242.5C 199.492,244.268 197.326,245.934 195,247.5C 194.14,251.027 191.973,253.193 188.5,254C 183.167,254.333 177.833,254.667 172.5,255C 171.167,256.333 169.833,257.667 168.5,259C 159.076,259.104 149.742,259.937 140.5,261.5C 140.108,259.821 139.608,258.154 139,256.5C 136.5,255.333 134.667,253.5 133.5,251C 132.5,250.333 131.5,250.333 130.5,251C 133.277,253.173 133.11,253.673 130,252.5C 128.842,249.553 128.342,246.553 128.5,243.5C 128.833,243.167 129.167,242.833 129.5,242.5C 131.053,244.265 131.386,246.098 130.5,248C 131.742,248.311 132.742,247.811 133.5,246.5C 136.333,247.999 137.999,250.333 138.5,253.5C 139.711,252.726 139.711,251.893 138.5,251C 139.167,250.333 139.833,250.333 140.5,251C 141.594,252.78 142.594,254.614 143.5,256.5C 143.564,255.635 143.897,254.635 144.5,253.5C 143.147,252.476 142.48,251.143 142.5,249.5C 139.579,249.854 137.246,248.854 135.5,246.5C 137.473,245.669 139.473,245.502 141.5,246C 139.771,244.211 139.104,242.044 139.5,239.5C 137.876,239.64 136.71,238.973 136,237.5C 135.571,239.669 136.071,241.669 137.5,243.5C 135.833,244.833 134.167,244.833 132.5,243.5C 133.397,243.331 134.397,242.998 135.5,242.5C 134.5,241.833 133.5,241.167 132.5,240.5C 132.709,239.914 133.043,239.414 133.5,239C 131.848,235.981 129.848,233.148 127.5,230.5C 126.914,230.709 126.414,231.043 126,231.5C 125.284,229.123 124.784,226.623 124.5,224C 123.056,223.219 121.723,223.386 120.5,224.5C 122.412,226.81 123.412,229.477 123.5,232.5C 120.813,232.664 118.146,232.497 115.5,232C 116.938,231.781 118.271,231.281 119.5,230.5C 118.699,228.647 118.365,226.981 118.5,225.5C 117.194,226.912 116.36,228.579 116,230.5C 115.578,228.574 114.411,227.574 112.5,227.5C 115.458,222.874 119.124,218.874 123.5,215.5C 125.582,215.624 127.082,216.624 128,218.5C 128.684,217.216 128.517,216.049 127.5,215C 128.624,214.751 129.624,214.251 130.5,213.5C 128.838,212.673 127.505,211.507 126.5,210C 127.742,209.689 128.742,210.189 129.5,211.5C 130.086,211.291 130.586,210.957 131,210.5C 132.743,212.975 133.743,212.975 134,210.5C 132.745,209.789 131.579,208.956 130.5,208C 132.18,207.966 133.68,207.799 135,207.5C 135.692,208.025 136.192,208.692 136.5,209.5C 136.865,212.764 138.865,215.264 142.5,217C 142,217.5 141.5,218 141,218.5C 139.637,216.216 138.137,216.049 136.5,218C 137.939,218.991 138.939,220.324 139.5,222C 138.269,223.183 138.269,224.349 139.5,225.5C 140.241,223.312 140.574,221.312 140.5,219.5C 141.957,221.275 143.124,223.275 144,225.5C 144.281,222.903 144.448,220.57 144.5,218.5C 145.292,220.465 145.959,222.465 146.5,224.5C 146.291,225.086 145.957,225.586 145.5,226C 146.672,227.997 148.005,229.83 149.5,231.5C 148.367,234.196 148.2,236.862 149,239.5C 147.745,238.789 146.579,237.956 145.5,237C 146.517,235.951 146.684,234.784 146,233.5C 144.813,235.044 144.48,236.711 145,238.5C 148.251,239.92 151.085,241.92 153.5,244.5C 155.708,243.728 155.375,242.895 152.5,242C 154.061,241.682 155.228,240.849 156,239.5C 157.214,241.049 158.714,242.215 160.5,243C 159.216,243.684 158.049,243.517 157,242.5C 156.508,243.549 156.674,244.549 157.5,245.5C 156.833,245.833 156.167,246.167 155.5,246.5C 159.479,245.08 163.146,246.246 166.5,250C 168.167,250.667 169.833,250.667 171.5,250C 169.971,248.209 168.304,246.542 166.5,245C 168.107,245.019 169.774,245.185 171.5,245.5C 171.565,248.998 172.899,249.498 175.5,247C 173.801,244.773 172.468,242.273 171.5,239.5C 171.833,239.167 172.167,238.833 172.5,238.5C 173.386,239.325 173.719,240.325 173.5,241.5C 175.912,241.669 178.079,241.003 180,239.5C 181.394,240.613 182.561,241.947 183.5,243.5C 184.292,242.3 184.292,240.967 183.5,239.5 Z"/></g>
<g><path style="opacity:1" fill="#b5da84" d="M 112.5,227.5 C 114.159,231.336 112.825,233.502 108.5,234C 110.766,235.514 111.932,237.681 112,240.5C 112.402,239.128 112.902,237.795 113.5,236.5C 112.391,234.786 113.058,234.119 115.5,234.5C 114.874,238.195 115.874,239.029 118.5,237C 117.483,235.951 117.316,234.784 118,233.5C 120.524,236.033 122.691,238.867 124.5,242C 123.5,242.5 122.5,243 121.5,243.5C 120.075,239.361 117.408,238.861 113.5,242C 114.126,242.75 114.626,243.584 115,244.5C 115.561,243.978 116.228,243.645 117,243.5C 119.087,245.126 121.253,246.626 123.5,248C 120.692,248.92 118.525,248.087 117,245.5C 115.113,247.062 114.28,248.729 114.5,250.5C 112.976,248.142 110.976,246.309 108.5,245C 106.865,244.46 105.532,244.96 104.5,246.5C 103.146,244.816 101.479,244.316 99.5,245C 101.211,246.435 102.378,248.269 103,250.5C 103.763,257.795 103.096,258.129 101,251.5C 100.282,250.549 99.4491,250.383 98.5,251C 99.0814,251.893 99.4148,252.893 99.5,254C 99.3199,256.241 98.4865,256.741 97,255.5C 96.4604,257.135 96.9604,258.468 98.5,259.5C 98.1667,259.833 97.8333,260.167 97.5,260.5C 95.9597,257.446 93.793,254.779 91,252.5C 90.3333,253.5 90.3333,254.5 91,255.5C 92.5,256.333 93.6667,257.5 94.5,259C 93.2575,259.311 92.2575,258.811 91.5,257.5C 91.0894,258.262 90.9227,259.262 91,260.5C 89.7453,259.789 88.5786,258.956 87.5,258C 88.1667,257.667 88.8333,257.333 89.5,257C 88.0563,256.219 86.723,256.386 85.5,257.5C 86.3256,258.451 86.4922,259.451 86,260.5C 84.0924,257.668 83.259,258.001 83.5,261.5C 87.4777,261.351 91.1444,262.351 94.5,264.5C 94.8333,264.333 95.1667,264.167 95.5,264C 94.5,263 93.5,262 92.5,261C 92.8333,260.833 93.1667,260.667 93.5,260.5C 96.6267,262.594 99.7933,264.594 103,266.5C 103.089,264.887 102.255,263.72 100.5,263C 101.448,262.517 102.448,262.351 103.5,262.5C 103.688,260.897 103.188,259.563 102,258.5C 101.717,261.742 100.883,262.076 99.5,259.5C 101.236,256.895 103.069,256.895 105,259.5C 105.489,256.127 104.989,252.627 103.5,249C 103.833,248.833 104.167,248.667 104.5,248.5C 106.055,250.598 107.388,252.931 108.5,255.5C 108.392,256.442 108.059,257.275 107.5,258C 109.359,259.558 110.859,261.391 112,263.5C 115.159,262.255 114.993,261.088 111.5,260C 114.277,257.827 114.11,257.327 111,258.5C 110.333,257.167 110.333,255.833 111,254.5C 111.423,255.956 112.256,256.456 113.5,256C 112.671,254.184 111.837,252.351 111,250.5C 110.692,251.308 110.192,251.975 109.5,252.5C 108.592,251.21 108.759,249.877 110,248.5C 111.759,250.667 113.926,252.334 116.5,253.5C 117.731,252.349 117.731,251.183 116.5,250C 117.167,249.333 117.833,249.333 118.5,250C 119.09,251.509 119.756,253.009 120.5,254.5C 121.354,253.478 122.354,252.645 123.5,252C 122.376,251.751 121.376,251.251 120.5,250.5C 121,250.167 121.5,249.833 122,249.5C 123.867,250.377 125.034,251.877 125.5,254C 126.448,254.483 127.448,254.649 128.5,254.5C 128.85,258.699 130.85,261.865 134.5,264C 131.53,263.169 128.53,262.002 125.5,260.5C 126.376,259.749 127.376,259.249 128.5,259C 127.195,256.852 125.362,255.352 123,254.5C 122.493,255.996 122.993,257.163 124.5,258C 124.167,258.167 123.833,258.333 123.5,258.5C 121.714,256.979 119.881,256.646 118,257.5C 117.581,256.328 116.915,255.328 116,254.5C 115.149,257.053 115.482,259.386 117,261.5C 117.333,260.5 117.667,259.5 118,258.5C 119.324,261.485 121.324,263.818 124,265.5C 124.5,265.333 125,265.167 125.5,265C 123.395,263.807 121.728,262.14 120.5,260C 120.833,259.833 121.167,259.667 121.5,259.5C 123.324,261.489 125.324,263.323 127.5,265C 130.146,265.497 132.813,265.664 135.5,265.5C 130.684,266.326 125.684,266.826 120.5,267C 117.048,267.892 114.048,269.558 111.5,272C 105.103,272.182 98.7697,272.848 92.5,274C 91.1218,275.713 89.4552,277.047 87.5,278C 80.8333,278.333 74.1667,278.667 67.5,279C 64.4605,280.031 61.9605,281.865 60,284.5C 57.3333,281.833 54.6667,279.167 52,276.5C 50.7945,273.108 49.9612,269.608 49.5,266C 50.2874,260.55 53.4541,258.05 59,258.5C 64.183,259.044 69.3497,259.71 74.5,260.5C 76.299,260.423 77.9656,259.923 79.5,259C 91.3308,249.335 102.331,238.835 112.5,227.5 Z"/></g>
</svg>
